<svg width="102" height="102" viewBox="0 0 102 102" fill="none" xmlns="http://www.w3.org/2000/svg">
<path d="M51 102C79.1665 102 102 79.1665 102 51C102 22.8335 79.1665 0 51 0C22.8335 0 0 22.8335 0 51C0 79.1665 22.8335 102 51 102Z" fill="white"/>
<g clip-path="url(#clip0)">
<path fill-rule="evenodd" clip-rule="evenodd" d="M30.1267 42.0002C32.6462 42.0002 32.6462 44.2633 31.4215 44.8291C33.5211 45.5363 32.9612 49.2491 30.1267 49.2491C30.1267 49.2491 27.9921 49.2491 24.8427 49.2491C21.9033 49.2491 22.0083 47.2336 22.0083 47.1982C22.0083 47.1982 22.0083 45.996 22.0083 44.0158C22.0083 44.0158 22.0083 41.9648 24.8427 41.9648C27.9921 41.9648 30.2317 41.9648 30.2317 41.9648L30.1267 42.0002ZM23.583 44.2279H29.4618C30.2317 44.2279 30.5816 44.2279 30.5816 43.7682C30.5816 43.3085 30.2317 43.3085 29.4618 43.3085C28.2021 43.3085 26.0325 43.3085 24.9477 43.3085C23.8979 43.3085 23.583 43.9804 23.583 44.2279ZM29.4618 48.0469C30.4067 48.0469 31.0016 47.4104 31.0365 46.7385C31.0365 46.102 30.5466 45.4302 29.4618 45.4302H23.583C23.583 45.4302 23.583 46.2081 23.583 46.88C23.583 47.5518 23.9679 48.0115 24.9127 48.0115C25.8925 48.0469 29.4618 48.0469 29.4618 48.0469Z" fill="#E6007E"/>
<path fill-rule="evenodd" clip-rule="evenodd" d="M40.4841 44.2277C41.8139 44.2277 42.3038 45.1825 42.3038 46.7383C42.3038 48.3296 41.6039 49.2489 40.5191 49.2489C40.5191 49.2489 38.9094 49.2489 36.5299 49.2489C34.2903 49.2489 34.3953 47.2334 34.3953 47.198V43.3083C34.3953 42 34.3953 42 35.0952 42C35.83 42 35.83 42 35.83 43.3083V44.2277H40.4841ZM39.4343 48.0467C40.3792 48.0467 41.009 48.082 41.009 46.7383C41.009 45.43 40.5191 45.43 39.4343 45.43H35.83V46.8798C35.83 47.5516 36.215 48.0113 37.1598 48.0113C38.1046 48.0113 39.4343 48.0467 39.4343 48.0467Z" fill="#E6007E"/>
<path fill-rule="evenodd" clip-rule="evenodd" d="M44.0537 47.7992C44.0537 49.2489 44.0537 49.2489 43.3188 49.2489C42.584 49.2489 42.584 49.2489 42.584 47.7992V43.3083C42.584 42 42.584 42 43.3188 42C44.0537 42 44.0537 42 44.0537 43.3083V47.7992Z" fill="#E6007E"/>
<path fill-rule="evenodd" clip-rule="evenodd" d="M52.8024 42C55.6368 42 55.6368 44.0509 55.6368 44.0509C55.6368 46.0311 55.6368 47.7992 55.6368 47.8345C55.6368 49.1782 55.6368 49.2843 54.902 49.2843C54.1671 49.2843 54.1671 49.2843 54.1671 47.8345V44.2631C54.1671 43.7327 53.8522 43.3437 52.8024 43.3437H48.6382C47.5534 43.3437 47.2734 43.8388 47.2734 44.2631V47.8345C47.2734 49.2843 47.2734 49.2843 46.5386 49.2843C45.8037 49.2843 45.8037 49.1782 45.8037 47.8345C45.8037 47.8345 45.8037 46.0311 45.8037 44.0509C45.8037 44.0509 45.8037 42 48.6382 42H52.8024V42Z" fill="#E6007E"/>
<path fill-rule="evenodd" clip-rule="evenodd" d="M65.7496 51.2645C65.8196 51.2645 67.5343 51.2645 67.5343 49.2843V43.2023C67.5343 42 67.5343 42 66.7994 42C66.0646 42 66.0646 42 66.0646 43.2023V48.0467H60.7806C59.8008 48.0467 59.1709 47.8345 59.1709 46.8091C59.1709 45.6422 59.1709 44.3692 59.1709 43.2023C59.1709 42 59.1709 42 58.436 42C57.7012 42 57.7012 42 57.7012 43.2023V47.3041C57.7012 48.5064 58.821 49.2843 59.9757 49.2843H66.0646C66.0646 49.8501 65.9596 49.9915 65.2247 49.9915H62.9852C62.3203 49.9915 62.3203 50.0269 62.3203 50.6634C62.3203 51.2999 62.3203 51.2999 62.9852 51.2999L65.7496 51.2645Z" fill="#E6007E"/>
<path fill-rule="evenodd" clip-rule="evenodd" d="M78.8723 42.0002C79.7122 42.0002 79.7122 41.9648 79.7122 42.6367C79.7122 43.3085 79.7122 43.2732 78.8723 43.2732H72.6085C72.1186 43.2732 71.1038 43.2732 71.1038 44.334V46.8093C71.1038 47.764 71.8037 48.0115 72.6085 48.0115H78.8723C79.7122 48.0115 79.7122 48.0115 79.7122 48.648C79.7122 49.2845 79.7122 49.2491 78.8723 49.2491H72.4336C69.4941 49.2491 69.5991 47.2336 69.5991 47.1982C69.5991 47.1982 69.5991 45.996 69.5991 44.0158C69.5991 44.0158 69.5991 41.9648 72.4336 41.9648C75.5829 42.0002 78.8373 42.0002 78.8723 42.0002Z" fill="#E6007E"/>
<path fill-rule="evenodd" clip-rule="evenodd" d="M83.2461 46.3496V48.0115C83.2461 49.2491 83.2461 49.2491 82.5112 49.2491C81.7764 49.2491 81.7764 49.2491 81.7764 48.0115V45.3948V43.2732C81.7764 41.9648 81.7764 41.9648 82.5112 41.9648C83.2461 41.9648 83.2461 41.9648 83.2461 43.2732V44.8291L88.6351 42.1416C89.7198 41.6112 90.5247 42.8135 89.2299 43.45L85.1707 45.4302C84.8908 45.5716 84.8908 45.7484 85.1707 45.8899L89.4749 48.0469C90.5247 48.648 89.7548 49.8503 88.67 49.2845L83.2461 46.3496Z" fill="#E6007E"/>
<path fill-rule="evenodd" clip-rule="evenodd" d="M16.3392 46.2434V45.324H12V43.9803H13.3297V42.3184H14.6595V44.0157H16.3392V42.3184H17.6689V44.0157H18.9987V45.3594H17.6689V46.2434H18.9987V47.5871H17.6689V49.2844H16.3392V47.5871H14.6595V49.2844H13.3297V47.5871H12V46.2434C13.4347 46.2434 14.8694 46.2434 16.3392 46.2434Z" fill="#E6007E"/>
<path fill-rule="evenodd" clip-rule="evenodd" d="M47.1683 56.781C49.8978 56.781 51.4725 57.5236 51.4725 59.3623V64.4896C51.5075 66.5405 49.1629 67.0002 47.1683 67.0002C47.1683 67.0002 47.1683 67.0002 43.459 67.0002C41.4294 67.0002 39.1199 66.5405 39.1549 64.4896V63.0045H27.4321C27.1172 63.0045 26.9072 62.8277 26.9072 62.5094V59.6806C26.9072 58.3722 28.4819 57.3821 29.9516 57.3821H35.7955C36.3904 57.3821 38.35 57.3821 38.35 55.7909C38.35 54.1997 36.8103 54.235 35.7955 54.235H33.9759C33.7309 54.235 33.276 54.0936 33.276 53.5632C33.276 53.0328 33.7309 52.856 33.9759 52.856H36.7053C38.35 52.856 40.0647 53.8461 40.0647 55.7555C40.0647 57.665 38.1051 58.6905 36.9153 58.6905H30.4415C29.8817 58.6905 28.5519 58.938 28.5519 60.0342V61.4132C28.5519 61.7669 28.7619 61.8376 29.0418 61.8376H39.1899V59.433C39.1899 57.5943 40.7996 56.8517 43.494 56.8517H47.1683V56.781ZM46.7134 65.6565C48.1831 65.6565 49.8978 65.3383 49.8978 63.8178V60.0342C49.8978 58.1247 48.708 58.1247 46.7134 58.1247H43.9839C41.9893 58.1247 40.7996 58.1247 40.7996 60.0342V63.8178C40.7646 65.3029 42.4792 65.6565 44.0189 65.6565H46.7134Z" fill="#E6007E"/>
<path fill-rule="evenodd" clip-rule="evenodd" d="M56.1971 53.7049C56.1971 52.8916 55.7072 52.8916 55.3223 52.8916C54.9373 52.8916 54.4824 52.8916 54.4824 53.7049C54.4824 57.8775 54.4824 62.0147 54.4824 66.1872C54.4824 67.0005 54.9373 67.0005 55.3223 67.0005C55.7072 67.0005 56.1971 67.0005 56.1971 66.1872V53.7049Z" fill="#E6007E"/>
<path d="M73.5531 59.8222L73.2032 59.6454L73.5531 59.4686C75.0579 58.7614 75.0579 57.7006 75.0579 56.569C75.0579 55.6143 75.0579 54.7303 74.148 54.0231C73.0632 53.2098 70.8237 52.8208 67.3243 52.8208C63.825 52.8208 61.5854 53.2098 60.5006 54.0231C59.5908 54.6949 59.5908 55.6143 59.5908 56.569C59.5908 57.7006 59.5908 58.7614 61.0955 59.4686L61.4455 59.6454L61.0955 59.8222C59.5908 60.6002 59.5908 61.7317 59.5908 62.934C59.5908 63.9594 59.5908 64.9495 60.5006 65.6921C61.5854 66.5761 63.825 67.0004 67.3243 67.0004C70.8237 67.0004 73.0632 66.5761 74.148 65.6921C75.0579 64.9495 75.0579 63.9948 75.0579 62.934C75.0928 61.7317 75.0928 60.6002 73.5531 59.8222ZM61.3405 56.6751C61.3405 56.1093 61.3405 55.4729 62.1453 54.9778C62.9852 54.4828 64.6299 54.2352 67.3243 54.2352C70.0188 54.2352 71.6285 54.4828 72.5033 54.9778C73.3082 55.4375 73.3082 56.1093 73.3082 56.6751C73.3082 57.2409 73.3082 57.8774 72.5033 58.3724C71.6635 58.8675 70.0188 59.115 67.3243 59.115C64.6299 59.115 63.0202 58.8675 62.1453 58.3724C61.3405 57.8774 61.3405 57.2409 61.3405 56.6751ZM72.5033 64.8081C71.6635 65.3385 70.0188 65.586 67.3243 65.586C64.6299 65.586 63.0202 65.3385 62.1453 64.8081C61.3405 64.313 61.3405 63.6058 61.3405 63.0047C61.3405 62.4035 61.3405 61.6963 62.1453 61.2013C62.9852 60.6709 64.6299 60.4233 67.3243 60.4233C70.0188 60.4233 71.6285 60.6709 72.5033 61.2013C73.3082 61.6963 73.3082 62.4035 73.3082 63.0047C73.3082 63.6058 73.3082 64.313 72.5033 64.8081Z" fill="#E6007E"/>
</g>
<defs>
<clipPath id="clip0">
<rect width="78" height="25" fill="white" transform="translate(12 42)"/>
</clipPath>
</defs>
</svg>
