<svg width="348" height="343" viewBox="0 0 348 343" fill="none" xmlns="http://www.w3.org/2000/svg">
<path d="M78.9787 246.737L51.8898 79.5933C51.686 78.3464 52.5675 77.2593 53.8536 77.1626L226.257 64.4131C227.543 64.3165 228.749 65.2527 228.953 66.4996L256.043 233.638C256.247 234.885 255.365 235.972 254.079 236.069L81.6743 248.823C80.3882 248.92 79.1824 247.984 78.9787 246.737ZM56.9151 81.5077L83.2722 244.134L251.016 231.729L224.658 69.1071L56.9151 81.5077Z" fill="#F7CB46"/>
<path d="M248.903 230.296L221.576 61.6172C221.428 60.695 221.866 59.8192 222.686 59.4043C223.507 58.9846 224.553 59.108 225.333 59.708L268.619 93.1744C269.131 93.57 269.473 94.1315 269.569 94.7352L296.896 263.414C297.044 264.336 296.606 265.212 295.787 265.626C294.965 266.046 293.919 265.923 293.14 265.323L249.853 231.856C249.341 231.461 248.999 230.899 248.903 230.296ZM227.174 66.7672L253.457 229.002L291.299 258.259L265.015 96.0282L227.174 66.7672Z" fill="#F7CB46"/>
<path d="M76.184 248.085C76.1372 247.803 76.1477 247.51 76.2199 247.228C76.443 246.377 77.1924 245.777 78.1204 245.709L247.845 232.993C248.452 232.949 249.073 233.136 249.572 233.518L291.717 265.844C292.475 266.428 292.823 267.359 292.605 268.211C292.382 269.062 291.633 269.662 290.705 269.73L120.98 282.445C120.373 282.49 119.752 282.303 119.254 281.921L77.1078 249.594C76.6008 249.204 76.2749 248.659 76.184 248.085ZM247.613 237.476L84.3769 249.706L121.217 277.965L284.453 265.734L247.613 237.476Z" fill="#F7CB46"/>
</svg>
