<svg width="190" height="170" viewBox="0 0 190 170" fill="none" xmlns="http://www.w3.org/2000/svg">
<g clip-path="url(#clip0)">
<path d="M142.229 122.619C155.227 106.258 173.905 99.4017 183.878 107.345C193.85 115.289 191.387 135.063 178.389 151.424C165.39 167.784 146.712 174.641 136.74 166.697C126.767 158.753 129.23 138.979 142.229 122.619ZM175.755 149.319C187.597 134.408 190.302 116.759 181.777 109.973C173.262 103.187 156.695 109.802 144.852 124.703C133.01 139.614 130.306 157.263 138.831 164.049C147.356 170.845 163.913 164.23 175.755 149.319Z" fill="#F7F7F7"/>
<path d="M11.6111 18.5853C24.6095 2.21455 43.2878 -4.63176 53.2603 3.31197L183.878 107.346L181.787 109.984L51.1693 5.94982C42.6545 -0.836087 26.0873 5.77866 14.245 20.6795C2.40263 35.5903 -0.301607 53.2397 8.22326 60.0256L138.831 164.059L136.74 166.697L6.1222 62.6635C-3.84023 54.7197 -1.38732 34.946 11.6111 18.5853Z" fill="#F7F7F7"/>
</g>
<defs>
<clipPath id="clip0">
<rect width="190" height="170" fill="white"/>
</clipPath>
</defs>
</svg>
