<svg width="596" height="199" viewBox="0 0 596 199" fill="none" xmlns="http://www.w3.org/2000/svg">
<g clip-path="url(#clip0)">
<path d="M540.962 0H72.918C42.5202 0 17.88 26.5686 17.88 59.3423V99.5V149.37C16.997 184.272 2.06944 197.651 1.97747 197.731C1.34284 198.181 0.689815 198.61 0 199C0 199 0.0183951 199 0.0551852 199C28.1628 198.99 35.1438 188.309 35.1438 188.309H35.153C42.9525 194.993 52.8214 199 63.5641 199H540.971C571.369 199 596.009 172.431 596.009 139.658V99.5V59.3423C596 26.5686 571.36 0 540.962 0Z" fill="#F0F2F8"/>
</g>
<defs>
<clipPath id="clip0">
<rect width="596" height="199" fill="white"/>
</clipPath>
</defs>
</svg>
