<?xml version="1.0" encoding="utf-8"?>
<!-- Generator: Adobe Illustrator 25.0.0, SVG Export Plug-In . SVG Version: 6.00 Build 0)  -->
<svg version="1.1" id="Layer_1" xmlns="http://www.w3.org/2000/svg" xmlns:xlink="http://www.w3.org/1999/xlink" x="0px" y="0px"
	 viewBox="0 0 500 500" style="enable-background:new 0 0 500 500;" xml:space="preserve">
<style type="text/css">
	.st0{fill:#0F0F0F;}
	.st1{fill:#FFFFFF;}
	.st2{opacity:0.7;}
	.st3{clip-path:url(#SVGID_2_);fill:#FFFFFF;}
	.st4{clip-path:url(#SVGID_4_);fill:#FFFFFF;}
	.st5{clip-path:url(#SVGID_6_);fill:#FFFFFF;}
</style>
<rect class="st0" width="500" height="500"/>
<g>
	<polygon class="st1" points="133.9,227 48.5,227 48.5,106.3 133.9,106.3 133.9,128.9 74.2,128.9 74.2,154.5 132.6,154.5 
		132.6,177.1 74.2,177.1 74.2,204.4 133.9,204.4 	"/>
	<polygon class="st1" points="235.2,227 203,227 156.3,106.3 185.6,106.3 219.1,199.1 252.4,106.3 281.7,106.3 	"/>
	<polygon class="st1" points="394.5,227 309.1,227 309.1,106.3 394.5,106.3 394.5,128.9 334.8,128.9 334.8,154.5 393.3,154.5 
		393.3,177.1 334.8,177.1 334.8,204.4 394.5,204.4 	"/>
	<polygon class="st1" points="157.3,376.8 132.5,376.8 74.9,298.1 74.9,376.8 49.2,376.8 49.2,256.2 75.7,256.2 131.6,332 
		131.6,256.2 157.3,256.2 	"/>
	<polygon class="st1" points="252.2,376.8 226.3,376.8 226.3,278.8 191,278.8 191,256.2 287.3,256.2 287.3,278.8 252.2,278.8 	"/>
	<g>
		<g class="st2">
			<g>
				<path class="st1" d="M305,364H295v-57.4h25.2c5.8,0,10.4,1.7,13.7,5.2c3.4,3.4,5,7.7,5,12.8c0,5-1.7,9.3-5,12.8
					c-3.4,3.5-7.9,5.2-13.7,5.2H305V364z M318.8,333.7c2.9,0,5.2-0.8,7.1-2.5c1.8-1.7,2.8-3.9,2.8-6.6c0-2.8-0.9-5-2.8-6.6
					c-1.8-1.7-4.2-2.5-7.1-2.5H305v18.2H318.8z"/>
				<path class="st1" d="M392.5,364h-11.6l-12.7-21.4h-10V364h-10.1v-57.4h25.2c5.6,0,10.2,1.7,13.6,5c3.4,3.3,5.2,7.7,5.2,13
					c0,4.8-1.3,8.7-4,11.6c-2.6,2.9-5.9,4.7-9.6,5.3L392.5,364z M372,333.7c2.9,0,5.2-0.8,7.1-2.5c1.8-1.7,2.8-3.9,2.8-6.6
					c0-2.8-0.9-5-2.8-6.6c-1.8-1.7-4.2-2.5-7.1-2.5h-13.8v18.2H372z"/>
				<path class="st1" d="M450.9,356.7c-5.5,5.6-12.5,8.4-21.1,8.4c-8.5,0-15.6-2.8-21.1-8.4c-5.5-5.6-8.3-12.7-8.3-21.3
					c0-8.6,2.8-15.7,8.3-21.3c5.5-5.6,12.5-8.4,21.1-8.4c8.5,0,15.6,2.8,21.1,8.4c5.5,5.6,8.3,12.7,8.3,21.3
					C459.1,344,456.4,351.1,450.9,356.7 M429.8,356.1c5.7,0,10.3-2,13.8-5.9c3.5-3.9,5.2-8.9,5.2-14.8c0-6-1.8-11-5.2-14.9
					c-3.5-3.9-8.1-5.9-13.8-5.9c-5.7,0-10.3,1.9-13.8,5.9c-3.5,3.9-5.2,8.9-5.2,14.9s1.7,11,5.2,14.9
					C419.5,354.2,424.1,356.1,429.8,356.1"/>
			</g>
		</g>
		<g class="st2">
			<g>
				<defs>
					<rect id="SVGID_1_" x="294.9" y="371.1" width="163.3" height="10"/>
				</defs>
				<clipPath id="SVGID_2_">
					<use xlink:href="#SVGID_1_"  style="overflow:visible;"/>
				</clipPath>
				<rect x="294.9" y="371.1" class="st3" width="163.3" height="10"/>
			</g>
		</g>
	</g>
</g>
</svg>
