<svg width="162" height="187" viewBox="0 0 162 187" fill="none" xmlns="http://www.w3.org/2000/svg">
<g clip-path="url(#clip0)">
<path d="M113.229 165.304L88.3412 138.358L90.022 136.771C107.669 120.092 108.58 91.9554 92.0406 74.0489C75.5008 56.1423 47.4889 54.9191 29.5914 71.3317L27.8921 72.8904L3.00416 45.9439L4.7204 44.3619C37.3649 14.2394 88.5408 16.3864 118.79 49.1409C149.042 81.9029 147.308 133.292 114.93 163.702L113.229 165.304ZM94.8579 138.552L113.425 158.666C142.317 129.826 143.365 82.6145 115.385 52.3118C87.4058 22.0091 40.4294 19.5011 9.60978 46.2429L28.1844 66.3538C47.9957 49.8328 77.6973 51.6612 95.4423 70.8704C113.183 90.09 112.755 119.971 94.8579 138.552Z" fill="#F7F7F7"/>
</g>
<defs>
<clipPath id="clip0">
<rect width="114" height="157" fill="white" transform="matrix(-0.939526 0.342477 -0.342479 -0.939525 161.438 147.731)"/>
</clipPath>
</defs>
</svg>
