<svg width="300" height="28" viewBox="0 0 300 28" fill="none" xmlns="http://www.w3.org/2000/svg">
<path d="M11.31 26.58C6.82 26.58 3.27 25.24 0.650002 22.57L3.56 18.49C5.73 20.76 8.4 21.89 11.57 21.89C12.96 21.89 14.03 21.62 14.8 21.08C15.57 20.54 15.95 19.88 15.95 19.1C15.95 18.42 15.59 17.85 14.87 17.4C14.15 16.95 13.26 16.62 12.19 16.42C11.12 16.22 9.95 15.93 8.69 15.55C7.43 15.17 6.26 14.74 5.19 14.26C4.12 13.78 3.22 13.03 2.51 11.99C1.8 10.96 1.44 9.70004 1.44 8.21004C1.44 6.04004 2.31 4.22004 4.05 2.75004C5.79 1.28004 8.11 0.540039 11.01 0.540039C15.02 0.540039 18.29 1.71004 20.84 4.06004L17.85 7.99004C15.86 6.15004 13.41 5.23004 10.52 5.23004C9.39 5.23004 8.5 5.46004 7.87 5.91004C7.24 6.36004 6.93 6.98004 6.93 7.76004C6.93 8.36004 7.29 8.88004 8.01 9.29004C8.73 9.71004 9.62 10.01 10.69 10.22C11.76 10.42 12.92 10.72 14.17 11.11C15.42 11.5 16.58 11.94 17.65 12.43C18.72 12.92 19.62 13.69 20.33 14.74C21.05 15.79 21.41 17.04 21.41 18.5C21.41 20.92 20.55 22.87 18.82 24.36C17.09 25.84 14.59 26.58 11.31 26.58Z" stroke="#1C002A" stroke-miterlimit="10"/>
<path d="M38.49 26.58C34.68 26.58 31.54 25.35 29.06 22.89C26.58 20.43 25.34 17.31 25.34 13.53C25.34 9.74998 26.58 6.62998 29.06 4.16998C31.54 1.70998 34.69 0.47998 38.49 0.47998C42.32 0.47998 45.48 1.69998 47.96 4.14998C50.44 6.58998 51.68 9.71998 51.68 13.53C51.68 17.34 50.44 20.46 47.96 22.91C45.48 25.36 42.32 26.58 38.49 26.58ZM32.95 19.48C34.35 21.04 36.19 21.82 38.49 21.82C40.78 21.82 42.64 21.04 44.05 19.48C45.46 17.92 46.17 15.94 46.17 13.54C46.17 11.15 45.46 9.16998 44.05 7.59998C42.64 6.03998 40.79 5.25998 38.49 5.25998C36.2 5.25998 34.35 6.03998 32.95 7.59998C31.55 9.15998 30.85 11.14 30.85 13.54C30.85 15.94 31.55 17.91 32.95 19.48Z" stroke="#1C002A" stroke-miterlimit="10"/>
<path d="M69.18 26.58C65.35 26.58 62.16 25.36 59.6 22.93C57.04 20.5 55.76 17.37 55.76 13.54C55.76 9.71 57.04 6.58 59.6 4.15C62.16 1.72 65.35 0.5 69.18 0.5C73.89 0.5 77.41 2.55 79.73 6.66L75.12 8.93C74.56 7.87 73.75 7 72.68 6.3C71.61 5.61 70.44 5.26 69.18 5.26C66.89 5.26 65 6.04 63.51 7.6C62.02 9.16 61.28 11.14 61.28 13.54C61.28 15.93 62.02 17.91 63.51 19.48C65 21.04 66.89 21.82 69.18 21.82C70.44 21.82 71.61 21.48 72.68 20.8C73.75 20.12 74.56 19.24 75.12 18.15L79.73 20.38C77.34 24.52 73.82 26.58 69.18 26.58Z" stroke="#1C002A" stroke-miterlimit="10"/>
<path d="M89.82 26.1299H84.45V0.919922H89.82V26.1299Z" stroke="#1C002A" stroke-miterlimit="10"/>
<path d="M119.84 26.1299H113.72L112.17 21.8599H101.36L99.77 26.1299H93.65L103.4 0.919922H110.13L119.84 26.1299ZM110.69 17.1299L106.76 6.27992L102.83 17.1299H110.69Z" stroke="#1C002A" stroke-miterlimit="10"/>
<path d="M139.72 26.1299H123.69V0.919922H129.06V21.3999H139.72V26.1299Z" stroke="#1C002A" stroke-miterlimit="10"/>
<path d="M150.34 26.1299H144.97V0.919922H150.34V26.1299Z" stroke="#1C002A" stroke-miterlimit="10"/>
<path d="M165.8 26.58C161.31 26.58 157.76 25.24 155.14 22.57L158.05 18.49C160.22 20.76 162.89 21.89 166.06 21.89C167.45 21.89 168.52 21.62 169.29 21.08C170.06 20.54 170.44 19.88 170.44 19.1C170.44 18.42 170.08 17.85 169.36 17.4C168.64 16.95 167.75 16.62 166.68 16.42C165.61 16.22 164.44 15.93 163.18 15.55C161.92 15.17 160.75 14.74 159.68 14.26C158.61 13.78 157.71 13.03 157 11.99C156.28 10.96 155.92 9.70004 155.92 8.21004C155.92 6.04004 156.79 4.22004 158.53 2.75004C160.27 1.28004 162.59 0.540039 165.49 0.540039C169.5 0.540039 172.77 1.71004 175.32 4.06004L172.33 7.99004C170.34 6.15004 167.89 5.23004 165 5.23004C163.87 5.23004 162.98 5.46004 162.35 5.91004C161.72 6.36004 161.4 6.98004 161.4 7.76004C161.4 8.36004 161.76 8.88004 162.48 9.29004C163.2 9.71004 164.09 10.01 165.16 10.22C166.23 10.42 167.39 10.72 168.64 11.11C169.89 11.5 171.05 11.94 172.12 12.43C173.19 12.92 174.09 13.69 174.8 14.74C175.52 15.79 175.88 17.04 175.88 18.5C175.88 20.92 175.02 22.87 173.29 24.36C171.58 25.84 169.08 26.58 165.8 26.58Z" stroke="#1C002A" stroke-miterlimit="10"/>
<path d="M208.37 26.1299H202.96V8.47992L195.85 26.1299H193.51L186.4 8.47992V26.1299H181.03V0.919922H188.55L194.67 16.1499L200.79 0.919922H208.35V26.1299H208.37Z" stroke="#1C002A" stroke-miterlimit="10"/>
<path d="M219.37 25.6399C218.77 26.2399 218.05 26.5499 217.22 26.5499C216.39 26.5499 215.67 26.2499 215.07 25.6399C214.47 25.0399 214.16 24.3199 214.16 23.4899C214.16 22.6599 214.46 21.9399 215.07 21.3399C215.67 20.7399 216.39 20.4299 217.22 20.4299C218.05 20.4299 218.77 20.7299 219.37 21.3399C219.97 21.9399 220.28 22.6599 220.28 23.4899C220.28 24.3199 219.97 25.0299 219.37 25.6399Z" fill="#1C002A"/>
<path d="M231.43 26.1299H226.06V0.919922H237.85C240.5 0.919922 242.57 1.68992 244.07 3.23992C245.57 4.78992 246.32 6.71992 246.32 9.03992C246.32 11.3299 245.56 13.2599 244.05 14.8199C242.54 16.3799 240.47 17.1599 237.85 17.1599H231.42V26.1299H231.43ZM237.13 12.4499C238.21 12.4499 239.1 12.1399 239.8 11.5199C240.49 10.8999 240.84 10.0799 240.84 9.03992C240.84 8.00992 240.49 7.17992 239.8 6.55992C239.11 5.93992 238.22 5.62992 237.13 5.62992H231.42V12.4299H237.13V12.4499Z" fill="#1C002A"/>
<path d="M270.06 26.1299H263.9L258.95 17.1699H255.02V26.1299H249.65V0.919922H261.44C264.04 0.919922 266.1 1.67992 267.62 3.18992C269.14 4.69992 269.91 6.65992 269.91 9.04992C269.91 11.1199 269.37 12.7899 268.3 14.0799C267.23 15.3699 265.92 16.1799 264.39 16.5399L270.06 26.1299ZM260.65 12.4499C261.76 12.4499 262.67 12.1399 263.37 11.5199C264.08 10.8999 264.43 10.0799 264.43 9.03992C264.43 8.00992 264.08 7.17992 263.37 6.55992C262.66 5.93992 261.76 5.62992 260.65 5.62992H255.02V12.4299H260.65V12.4499Z" fill="#1C002A"/>
<path d="M285.9 26.58C282.09 26.58 278.95 25.35 276.47 22.89C273.99 20.43 272.75 17.31 272.75 13.53C272.75 9.74998 273.99 6.62998 276.47 4.16998C278.95 1.70998 282.1 0.47998 285.9 0.47998C289.73 0.47998 292.89 1.69998 295.37 4.14998C297.85 6.58998 299.09 9.71998 299.09 13.53C299.09 17.34 297.85 20.46 295.37 22.91C292.88 25.36 289.73 26.58 285.9 26.58ZM280.36 19.48C281.76 21.04 283.6 21.82 285.9 21.82C288.19 21.82 290.05 21.04 291.46 19.48C292.87 17.92 293.58 15.94 293.58 13.54C293.58 11.15 292.87 9.16998 291.46 7.59998C290.05 6.03998 288.2 5.25998 285.9 5.25998C283.61 5.25998 281.76 6.03998 280.36 7.59998C278.96 9.15998 278.26 11.14 278.26 13.54C278.26 15.94 278.96 17.91 280.36 19.48Z" fill="#1C002A"/>
</svg>
