<svg width="1002" height="775" viewBox="0 0 1002 775" fill="none" xmlns="http://www.w3.org/2000/svg">
<path d="M768.087 775C764.531 775 760.924 774.847 757.266 774.543C751.829 774.086 746.342 773.222 741.007 772.003L95.5628 626.433C39.7773 613.837 0.554797 565.178 0.148346 507.986V127.605H10.3096V507.986C10.6653 560.353 46.6362 604.999 97.7983 616.529L743.294 762.048C748.171 763.165 753.201 763.927 758.18 764.384C814.423 769.362 865.788 731.42 877.626 676.159L989.349 154.982C996.106 123.593 988.994 90.7302 969.941 64.9278C950.838 39.0747 921.624 22.6181 889.718 19.7738C887.177 19.5706 884.586 19.4182 881.944 19.3674L471.225 11.0375L471.429 0.87915L882.198 9.25983C885.044 9.31062 887.838 9.46299 890.632 9.71695C925.435 12.8153 957.341 30.7448 978.172 58.9344C998.952 87.0732 1006.67 122.882 999.307 157.166L887.584 678.343C875.39 735.026 825.092 775 768.087 775Z" fill="white"/>
</svg>
