<svg width="104" height="104" viewBox="0 0 104 104" fill="none" xmlns="http://www.w3.org/2000/svg">
<path d="M52 104C80.7188 104 104 80.7188 104 52C104 23.2812 80.7188 0 52 0C23.2812 0 0 23.2812 0 52C0 80.7188 23.2812 104 52 104Z" fill="white"/>
<g clip-path="url(#clip0)">
<path d="M60.3965 43.8612V41.3862C60.3965 41.257 60.4265 41.1609 60.4851 41.0963C60.5436 41.0318 60.6195 41.0002 60.7128 41.0002C60.8093 41.0002 60.8868 41.0318 60.9469 41.0963C61.007 41.1594 61.0371 41.257 61.0371 41.3862V43.8612C61.0371 43.9919 61.007 44.088 60.9469 44.1526C60.8868 44.2172 60.8093 44.2487 60.7128 44.2487C60.6211 44.2487 60.5452 44.2156 60.4851 44.1511C60.4265 44.088 60.3965 43.9904 60.3965 43.8612Z" fill="black"/>
<path d="M62.1787 43.8617V41.3867C62.1787 41.2575 62.2088 41.1614 62.2673 41.0968C62.3258 41.0322 62.4017 41.0007 62.495 41.0007C62.5915 41.0007 62.669 41.0322 62.7291 41.0968C62.7892 41.1598 62.8193 41.2575 62.8193 41.3867V43.8617C62.8193 43.9924 62.7892 44.0885 62.7291 44.1531C62.669 44.2177 62.5915 44.2492 62.495 44.2492C62.4033 44.2492 62.3274 44.2161 62.2673 44.1515C62.2088 44.0885 62.1787 43.9908 62.1787 43.8617Z" fill="black"/>
<path d="M64 43.8612V41.3862C64 41.257 64.0301 41.1609 64.0886 41.0963C64.1471 41.0318 64.223 41.0002 64.3163 41.0002C64.4128 41.0002 64.4903 41.0318 64.5504 41.0963C64.6105 41.1594 64.6406 41.257 64.6406 41.3862V43.8612C64.6406 43.9919 64.6105 44.088 64.5504 44.1526C64.4903 44.2172 64.4128 44.2487 64.3163 44.2487C64.2246 44.2487 64.1487 44.2156 64.0886 44.1511C64.0301 44.088 64 43.9904 64 43.8612Z" fill="black"/>
<path d="M69.376 41.568C69.6322 41.787 69.7587 42.0722 69.7587 42.4235C69.7587 42.7748 69.6306 43.0599 69.376 43.2789C69.1197 43.4979 68.7781 43.6287 68.3495 43.6696V44.0257H67.7547V43.6696C67.3229 43.6255 66.9797 43.4947 66.7282 43.2773C66.4752 43.0599 66.3486 42.7748 66.3486 42.4235C66.3486 42.0722 66.4752 41.787 66.7282 41.5696C66.9813 41.3522 67.3229 41.2199 67.7547 41.1773V40.8213H68.3495V41.1773C68.7781 41.2183 69.1197 41.349 69.376 41.568ZM66.9513 42.4235C66.9513 42.8236 67.2186 43.0536 67.7532 43.1135V41.7303C67.2186 41.7886 66.9513 42.0202 66.9513 42.4235ZM68.3479 43.1182C68.8825 43.0568 69.1498 42.8252 69.1498 42.425C69.1498 42.0217 68.8825 41.7886 68.3479 41.7271V43.1182Z" fill="black"/>
<path d="M73.3551 43.5594C73.0435 43.8682 72.6639 44.0226 72.2179 44.0226C71.7718 44.0226 71.3922 43.8682 71.0822 43.5594C70.7722 43.2506 70.6172 42.8725 70.6172 42.4251C70.6172 41.9777 70.7722 41.5996 71.0822 41.2908C71.3922 40.982 71.7702 40.8276 72.2179 40.8276C72.6639 40.8276 73.0435 40.982 73.3551 41.2908C73.6667 41.5996 73.8217 41.9777 73.8217 42.4251C73.8217 42.8725 73.6667 43.2506 73.3551 43.5594ZM71.5077 43.1466C71.6991 43.3357 71.9347 43.4302 72.2179 43.4302C72.4994 43.4302 72.7367 43.3357 72.928 43.1466C73.1194 42.9576 73.2143 42.7165 73.2143 42.4251C73.2143 42.1321 73.1194 41.891 72.928 41.7004C72.7367 41.5098 72.501 41.4153 72.2179 41.4153C71.9363 41.4153 71.6991 41.5098 71.5077 41.7004C71.3163 41.891 71.2214 42.1321 71.2214 42.4251C71.2214 42.7165 71.3179 42.9576 71.5077 43.1466Z" fill="black"/>
<path d="M76.0187 40.8875C76.316 40.8875 76.566 40.9867 76.7684 41.1852C76.9709 41.3837 77.0721 41.6279 77.0721 41.9178C77.0721 42.2076 76.9709 42.4518 76.7684 42.6503C76.566 42.8488 76.316 42.9481 76.0187 42.9481H75.4762V43.9579H74.8672V40.8875H76.0187ZM76.0187 42.3841C76.1484 42.3841 76.2559 42.34 76.3398 42.2502C76.4252 42.1604 76.4679 42.0501 76.4679 41.9193C76.4679 41.7854 76.4252 41.6736 76.3398 41.5854C76.2544 41.4971 76.1468 41.453 76.0187 41.453H75.4762V42.3841H76.0187Z" fill="black"/>
<path d="M79.6534 40.8875H80.2608L79.3355 43.1135C79.0888 43.7106 78.6838 43.9926 78.1192 43.9611V43.3955C78.2837 43.4097 78.4165 43.3876 78.5178 43.3278C78.619 43.2679 78.7028 43.1702 78.7708 43.0363L77.7617 40.889H78.3707L79.0445 42.3731L79.6534 40.8875Z" fill="black"/>
<path d="M84.2281 40.8875V43.9611H83.6239V41.9682L82.7555 43.3955H82.6843L81.816 41.9729V43.9611H81.207V40.8875H81.8334L82.7191 42.34L83.6001 40.8875H84.2281Z" fill="black"/>
<path d="M61.7777 50.2941C61.3126 50.2941 60.9299 50.1413 60.6278 49.8326C60.3257 49.5254 60.1738 49.1457 60.1738 48.6951C60.1738 48.2414 60.3257 47.8617 60.6278 47.5561C60.9299 47.2505 61.3142 47.0977 61.7777 47.0977C62.056 47.0977 62.3154 47.1622 62.5511 47.293C62.7884 47.4238 62.9718 47.6002 63.1047 47.8223L62.5796 48.1248C62.5037 47.9878 62.3945 47.8791 62.2537 47.8019C62.113 47.7247 61.9548 47.6853 61.7777 47.6853C61.4787 47.6853 61.2367 47.7782 61.0532 47.9657C60.8698 48.1532 60.778 48.3958 60.778 48.6951C60.778 48.9913 60.8698 49.2323 61.0532 49.4198C61.2367 49.6073 61.4787 49.7002 61.7777 49.7002C61.9548 49.7002 62.113 49.6608 62.2553 49.5836C62.3977 49.5064 62.5052 49.4009 62.5796 49.2654L63.1047 49.5679C62.9718 49.79 62.7884 49.9665 62.5543 50.0972C62.317 50.228 62.0592 50.2941 61.7777 50.2941Z" fill="black"/>
<path d="M66.6598 49.8314C66.3482 50.1401 65.9686 50.2945 65.5225 50.2945C65.0765 50.2945 64.6969 50.1401 64.3869 49.8314C64.0769 49.5226 63.9219 49.1445 63.9219 48.6971C63.9219 48.2497 64.0769 47.8716 64.3869 47.5628C64.6969 47.254 65.0749 47.0996 65.5225 47.0996C65.9686 47.0996 66.3482 47.254 66.6598 47.5628C66.9714 47.8716 67.1264 48.2497 67.1264 48.6971C67.1279 49.1429 66.9714 49.5226 66.6598 49.8314ZM64.8139 49.4186C65.0053 49.6076 65.241 49.7022 65.5241 49.7022C65.8057 49.7022 66.0429 49.6076 66.2343 49.4186C66.4257 49.2296 66.5206 48.9885 66.5206 48.6971C66.5206 48.404 66.4257 48.163 66.2343 47.9724C66.0429 47.7818 65.8072 47.6872 65.5241 47.6872C65.2426 47.6872 65.0053 47.7818 64.8139 47.9724C64.6226 48.163 64.5277 48.404 64.5277 48.6971C64.5261 48.9885 64.6226 49.2296 64.8139 49.4186Z" fill="black"/>
<path d="M70.478 49.6533H70.8085V50.8207H70.1996V50.233H68.1719V47.1594H68.7808V49.6533H69.869V47.1594H70.4764V49.6533H70.478Z" fill="black"/>
<path d="M73.6138 50.233V48.3583L72.2915 50.233H71.8281V47.1594H72.437V49.0389L73.7593 47.1594H74.2227V50.233H73.6138Z" fill="black"/>
<path d="M77.3971 50.233L77.212 49.6801H75.9831L75.798 50.233H75.1416L76.2219 47.1594H76.9748L78.0582 50.233H77.3971ZM76.176 49.1129H77.0222L76.5999 47.8573L76.176 49.1129Z" fill="black"/>
<path d="M78.7734 50.233V49.6706C78.9553 49.6974 79.0929 49.6596 79.1831 49.5603C79.2748 49.4611 79.3191 49.2657 79.3191 48.9759V47.1594H81.4165V50.233H80.8122V47.7392H79.9217V48.9601C79.9217 49.2263 79.8901 49.4501 79.8253 49.6312C79.7604 49.8124 79.6718 49.9479 79.558 50.0345C79.4457 50.1227 79.3239 50.181 79.1958 50.2094C79.0708 50.2393 78.9284 50.2472 78.7734 50.233Z" fill="black"/>
<path d="M83.7573 48.1693C84.0547 48.1693 84.3046 48.2685 84.507 48.467C84.7095 48.6655 84.8107 48.9097 84.8107 49.1996C84.8107 49.4894 84.7095 49.7336 84.507 49.9321C84.3046 50.1306 84.0547 50.2299 83.7573 50.2299H82.6074V47.1594H83.2164V48.1693H83.7573ZM83.7573 49.6659C83.887 49.6659 83.9946 49.6218 84.0784 49.5336C84.1638 49.4453 84.2065 49.3351 84.2065 49.1996C84.2065 49.0672 84.1638 48.957 84.0784 48.8687C83.993 48.7789 83.8854 48.7348 83.7573 48.7348H83.2148V49.6659H83.7573Z" fill="black"/>
<path d="M87.578 47.1594H88.1822V50.233H87.578V48.9601H86.4312V50.233H85.8223V47.1594H86.4312V48.3804H87.578V47.1594Z" fill="black"/>
<path d="M89.3721 50.233V47.1594H89.981V48.1693H90.5235C90.8209 48.1693 91.0708 48.2685 91.2732 48.467C91.4757 48.6655 91.5769 48.9097 91.5769 49.1996C91.5769 49.4894 91.4757 49.7336 91.2732 49.9321C91.0708 50.1306 90.8209 50.2299 90.5235 50.2299H89.3721V50.233ZM89.981 49.6659H90.5235C90.6532 49.6659 90.7608 49.6218 90.8446 49.5336C90.93 49.4453 90.9727 49.3351 90.9727 49.1996C90.9727 49.0657 90.93 48.9538 90.8446 48.8656C90.7592 48.7774 90.6516 48.7333 90.5235 48.7333H89.981V49.6659ZM91.8585 50.233V47.1594H92.4627V50.233H91.8585Z" fill="black"/>
<path d="M96.001 50.2339H95.3082L94.7088 49.2335L94.1109 50.2339H93.4229L94.3655 48.6585L93.4703 47.1619H94.1583L94.7088 48.0835L95.2592 47.1619H95.9472L95.052 48.6538L96.001 50.2339Z" fill="black"/>
<path d="M62.0992 56.5027V54.628L60.7769 56.5027H60.3135V53.4307H60.9224V55.3101L62.2447 53.4307H62.7082V56.5043H62.0992V56.5027Z" fill="black"/>
<path d="M65.6512 53.4307H66.2554V56.5043H65.6512V55.2313H64.5045V56.5043H63.8955V53.4307H64.5045V54.6516H65.6512V53.4307Z" fill="black"/>
<path d="M69.1993 53.4307H69.8035V56.5043H69.1993V55.2313H68.0542V56.5043H67.4453V53.4307H68.0542V54.6516H69.2009V53.4307H69.1993Z" fill="black"/>
<path d="M73.5894 56.1021C73.2778 56.4109 72.8982 56.5653 72.4522 56.5653C72.0062 56.5653 71.6266 56.4109 71.3166 56.1021C71.0066 55.7933 70.8516 55.4152 70.8516 54.9678C70.8516 54.5204 71.0066 54.1423 71.3166 53.8335C71.6266 53.5248 72.0046 53.3704 72.4522 53.3704C72.8982 53.3704 73.2778 53.5248 73.5894 53.8335C73.901 54.1423 74.056 54.5204 74.056 54.9678C74.056 55.4152 73.901 55.7933 73.5894 56.1021ZM71.742 55.6909C71.9334 55.88 72.1691 55.9745 72.4522 55.9745C72.7353 55.9745 72.971 55.88 73.1624 55.6909C73.3538 55.5019 73.4487 55.2608 73.4487 54.9694C73.4487 54.6764 73.3538 54.4353 73.1624 54.2447C72.971 54.0541 72.7353 53.9596 72.4522 53.9596C72.1691 53.9596 71.9334 54.0541 71.742 54.2447C71.5507 54.4353 71.4558 54.6764 71.4558 54.9694C71.4558 55.2608 71.5507 55.5019 71.742 55.6909Z" fill="black"/>
<path d="M76.964 54.91C77.2345 55.0644 77.3689 55.2991 77.3689 55.6126C77.3689 55.8725 77.2772 56.0868 77.0906 56.2538C76.9055 56.4208 76.6778 56.5043 76.4073 56.5043H75.0977V53.4307H76.314C76.5781 53.4307 76.8011 53.5126 76.9814 53.6748C77.1618 53.8371 77.2519 54.0451 77.2519 54.2956C77.2551 54.5492 77.1586 54.7556 76.964 54.91ZM76.3155 53.9962H75.7082V54.6721H76.3155C76.4089 54.6721 76.488 54.6406 76.5512 54.576C76.6145 54.5114 76.6461 54.431 76.6461 54.3349C76.6461 54.2388 76.6161 54.1585 76.5544 54.0939C76.4927 54.0293 76.4136 53.9962 76.3155 53.9962ZM76.4089 55.9371C76.5117 55.9371 76.5971 55.9025 76.6651 55.8331C76.7331 55.7638 76.7663 55.6772 76.7663 55.5716C76.7663 55.4692 76.7331 55.3842 76.6651 55.3148C76.5971 55.2455 76.5117 55.2124 76.4089 55.2124H75.7082V55.9371H76.4089Z" fill="black"/>
<path d="M80.3668 56.5038L80.1818 55.9508H78.9528L78.7677 56.5038H78.1113L79.1916 53.4302H79.9445L81.0296 56.5038H80.3668ZM79.1458 55.3853H79.992L79.5697 54.1297L79.1458 55.3853Z" fill="black"/>
<path d="M84.2514 55.9245H84.582V57.0919H83.973V56.5043H81.9453V53.4307H82.5543V55.9245H83.6425V53.4307H84.2498V55.9245H84.2514Z" fill="black"/>
<path d="M87.3892 56.5027V54.628L86.0669 56.5027H85.6035V53.4307H86.2125V55.3101L87.5347 53.4307H87.9982V56.5043H87.3892V56.5027Z" fill="black"/>
<path d="M90.9732 56.503V54.6283L89.6509 56.503H89.1875V53.431H89.7965V55.3104L91.1187 53.431H91.5822V56.5046H90.9732V56.503ZM89.7427 53.149V52.6575H91.0207V53.149H89.7427Z" fill="black"/>
<path d="M61.4823 59.7031C61.7591 59.7031 61.99 59.7945 62.1751 59.9788C62.3602 60.1631 62.4535 60.3932 62.4535 60.6688C62.4535 60.9445 62.3617 61.1745 62.1751 61.3589C61.99 61.5432 61.7591 61.6361 61.4823 61.6361H60.6883V62.7783H60.3799V59.7047H61.4823V59.7031ZM61.4823 61.3447C61.6737 61.3447 61.8319 61.2817 61.9568 61.1541C62.0818 61.0265 62.1435 60.8658 62.1435 60.6688C62.1435 60.4735 62.0802 60.3112 61.9568 60.1836C61.8319 60.056 61.6737 59.993 61.4823 59.993H60.6883V61.3447H61.4823Z" fill="black"/>
<path d="M63.9061 62.4844H65.4039V62.7743H63.5977V59.7007H65.3834V59.9906H63.9077V61.0792H65.2742V61.369H63.9077V62.4844H63.9061Z" fill="black"/>
<path d="M68.269 59.7031V59.993H66.8582V62.7767H66.5498V59.7031H68.269Z" fill="black"/>
<path d="M71.3106 62.7743V60.2726L69.5913 62.7743H69.3271V59.7007H69.6356V62.2024L71.3549 59.7007H71.619V62.7743H71.3106Z" fill="black"/>
<path d="M75.4931 62.3654C75.1846 62.6742 74.8066 62.8286 74.3606 62.8286C73.9145 62.8286 73.5365 62.6742 73.2281 62.3654C72.9197 62.0566 72.7646 61.6817 72.7646 61.239C72.7646 60.7979 72.9197 60.4214 73.2281 60.1126C73.5365 59.8038 73.9145 59.6494 74.3606 59.6494C74.8066 59.6494 75.1846 59.8038 75.4931 60.1126C75.8015 60.4214 75.9565 60.7963 75.9565 61.239C75.9565 61.6801 75.8031 62.0566 75.4931 62.3654ZM73.4448 62.1543C73.6915 62.4048 73.9968 62.5292 74.3622 62.5292C74.7259 62.5292 75.0328 62.4048 75.2795 62.1543C75.5263 61.9038 75.6496 61.5998 75.6496 61.239C75.6496 60.8782 75.5263 60.5742 75.2795 60.3237C75.0328 60.0732 74.7275 59.9487 74.3622 59.9487C73.9984 59.9487 73.6915 60.0732 73.4448 60.3237C73.198 60.5742 73.0747 60.8798 73.0747 61.239C73.0747 61.5998 73.198 61.9038 73.4448 62.1543Z" fill="black"/>
<path d="M79.085 59.7031H79.3934V62.7767H79.085V61.3415H77.41V62.7767H77.1016V59.7031H77.41V61.0501H79.085V59.7031Z" fill="black"/>
<path d="M83.2685 62.3654C82.96 62.6742 82.582 62.8286 82.136 62.8286C81.6899 62.8286 81.3119 62.6742 81.0035 62.3654C80.695 62.0566 80.54 61.6817 80.54 61.239C80.54 60.7979 80.695 60.4214 81.0035 60.1126C81.3119 59.8038 81.6899 59.6494 82.136 59.6494C82.582 59.6494 82.96 59.8038 83.2685 60.1126C83.5769 60.4214 83.7319 60.7963 83.7319 61.239C83.7319 61.6801 83.5769 62.0566 83.2685 62.3654ZM81.2186 62.1543C81.4653 62.4048 81.7706 62.5292 82.136 62.5292C82.4998 62.5292 82.8066 62.4048 83.0533 62.1543C83.3001 61.9038 83.4235 61.5998 83.4235 61.239C83.4235 60.8782 83.3001 60.5742 83.0533 60.3237C82.8066 60.0732 82.5013 59.9487 82.136 59.9487C81.7722 59.9487 81.4653 60.0732 81.2186 60.3237C80.9718 60.5742 80.8485 60.8798 80.8485 61.239C80.8485 61.5998 80.9718 61.9038 81.2186 62.1543Z" fill="black"/>
<path d="M86.5864 61.1824C86.7366 61.247 86.8552 61.3447 86.9454 61.4739C87.0355 61.6046 87.0798 61.7527 87.0798 61.9197C87.0798 62.156 86.996 62.3593 86.8283 62.5262C86.6607 62.6932 86.4582 62.7767 86.2194 62.7767H84.875V59.7031H86.1182C86.3475 59.7031 86.5421 59.785 86.705 59.9473C86.8663 60.1096 86.947 60.3034 86.947 60.5286C86.9485 60.8154 86.8283 61.0328 86.5864 61.1824ZM86.1198 59.993H85.185V61.0643H86.1198C86.2637 61.0643 86.3871 61.0123 86.4883 60.9083C86.5895 60.8043 86.6401 60.6783 86.6401 60.5286C86.6401 60.3821 86.5895 60.2561 86.4883 60.1505C86.3855 60.045 86.2637 59.993 86.1198 59.993ZM86.221 62.4853C86.3744 62.4853 86.5041 62.4301 86.6117 62.3214C86.7192 62.2112 86.773 62.0773 86.773 61.9197C86.773 61.7653 86.7192 61.6314 86.6117 61.5196C86.5041 61.4077 86.3744 61.3526 86.221 61.3526H85.185V62.4853H86.221Z" fill="black"/>
<path d="M33.9471 61.1387H33.6276C33.4916 61.1387 33.3809 61.0284 33.3809 60.893V43.8503C33.3809 43.7148 33.4916 43.6045 33.6276 43.6045H33.9471C34.0831 43.6045 34.1938 43.7148 34.1938 43.8503V60.893C34.1938 61.0269 34.0831 61.1387 33.9471 61.1387Z" fill="#2A7DE1"/>
<path d="M47.4076 63.5369C43.0073 63.5369 39.4248 59.9701 39.4248 55.5858V50.1774C39.4248 49.6891 39.8218 49.2936 40.3121 49.2936C40.8009 49.2936 41.1995 49.6891 41.1995 50.1774V55.5858C41.1995 58.9965 43.9848 61.7693 47.4076 61.7693C50.8304 61.7693 53.6141 58.995 53.6141 55.5858V47.0125C53.6141 46.5241 54.0127 46.1287 54.5015 46.1287C54.9902 46.1287 55.3888 46.5241 55.3888 47.0125V55.5858C55.3904 59.9701 51.8094 63.5369 47.4076 63.5369Z" fill="#2A7DE1"/>
<path d="M47.4067 59.6217C45.3695 59.6217 43.7119 57.9707 43.7119 55.94C43.7119 53.9093 45.3695 52.2583 47.4067 52.2583C49.4455 52.2583 51.1031 53.9093 51.1031 55.94C51.1031 57.9691 49.4455 59.6217 47.4067 59.6217ZM47.4067 54.0259C46.347 54.0259 45.485 54.8845 45.485 55.94C45.485 56.9955 46.347 57.8541 47.4067 57.8541C48.4665 57.8541 49.3285 56.9955 49.3285 55.94C49.3285 54.8845 48.4681 54.0259 47.4067 54.0259Z" fill="#2A7DE1"/>
<path d="M43.9332 51.4302C43.4429 51.4302 43.0459 51.0347 43.0459 50.5464V42.8899C43.0459 42.4015 43.4429 42.0061 43.9332 42.0061C44.422 42.0061 44.8206 42.4015 44.8206 42.8899V50.5464C44.8206 51.0332 44.4236 51.4302 43.9332 51.4302Z" fill="#2A7DE1"/>
<path d="M50.8805 51.4302C50.3902 51.4302 49.9932 51.0347 49.9932 50.5464V42.8899C49.9932 42.4015 50.3902 42.0061 50.8805 42.0061C51.3708 42.0061 51.7678 42.4015 51.7678 42.8899V50.5464C51.7678 51.0332 51.3708 51.4302 50.8805 51.4302Z" fill="#2A7DE1"/>
<path d="M47.4899 50.5455C47.0011 50.5455 46.6025 50.1501 46.6025 49.6617V41.416C46.6025 40.9277 46.9995 40.5322 47.4899 40.5322C47.9802 40.5322 48.3772 40.9277 48.3772 41.416V49.6633C48.3772 50.1501 47.9802 50.5455 47.4899 50.5455Z" fill="#2A7DE1"/>
<path d="M7 46.2837C7 46.2837 12.4869 48.4404 15.4589 48.2025C17.765 48.0182 19.5792 47.4511 21.9897 44.8863C23.0605 43.7489 24.4697 41.6914 24.4697 41.6914C24.4697 41.6914 24.2135 43.1707 23.3246 45.5763C22.7552 47.1171 20.4981 52.5554 16.2861 56.4435C13.2603 59.2367 10.5983 59.6841 10.5983 59.6841C10.5983 59.6841 13.1543 57.0988 13.6637 54.1812C14.1824 51.2068 12.4363 50.3183 10.4418 48.965C8.35234 47.5487 7 46.2837 7 46.2837Z" fill="#2A7DE1"/>
<path d="M19.0113 44.8555C19.0113 46.2167 17.9089 47.3195 16.5486 47.3195C15.1884 47.3195 14.0859 46.2151 14.0859 44.8555C14.0859 43.4944 15.1884 42.3916 16.5486 42.3916C17.9089 42.3916 19.0113 43.4944 19.0113 44.8555Z" fill="#2A7DE1"/>
<path d="M11.6865 54.163C11.6865 54.163 16.8982 54.9066 20.4079 53.8337C22.6682 53.1421 24.0854 51.9763 25.7461 48.8712C27.2851 45.9945 27.5746 44.6948 27.5746 44.6948C27.5746 44.6948 27.5524 46.8515 27.3262 49.3375C27.1175 51.6329 26.8312 56.0503 23.459 61.2838C21.2288 64.7465 18.9164 65.999 18.9164 65.999C18.9164 65.999 20.0758 63.2735 20.0758 60.3102C20.0758 57.2492 17.6495 56.5434 15.3434 55.8487C13.2587 55.2201 11.6865 54.163 11.6865 54.163Z" fill="#FF5100"/>
<path d="M23.2104 50.3405C23.2104 51.7568 22.0637 52.9037 20.6496 52.9037C19.2356 52.9037 18.0889 51.7568 18.0889 50.3405C18.0889 48.9242 19.2356 47.7773 20.6496 47.7773C22.0637 47.7773 23.2104 48.9242 23.2104 50.3405Z" fill="#FF5100"/>
<path d="M27.06 37C27.06 37 27.1454 37.8003 26.5459 38.7455C25.8009 39.9176 25.6317 41.4032 26.2311 42.391C26.8306 43.3788 27.7164 43.979 27.7164 43.979C27.7164 43.979 27.8587 43.0606 28.5009 41.9483C29.0118 41.0614 29.3392 39.8625 29.0371 39.2024C28.5025 38.0303 27.06 37 27.06 37Z" fill="#FF5100"/>
</g>
<defs>
<clipPath id="clip0">
<rect width="89" height="29" fill="white" transform="translate(7 37)"/>
</clipPath>
</defs>
</svg>
