<svg xmlns="http://www.w3.org/2000/svg" xmlns:xlink="http://www.w3.org/1999/xlink"><defs>
<clipPath id="clip0">
<rect width="773" height="70" fill="white"/>
</clipPath>
</defs><symbol id="icon-arrow" viewBox="0 0 18 18">
<path d="M8.97914 10.0432H17.2207V7.98286H8.97914V0.771484L0.737568 9.01305L8.97914 17.2546V10.0432Z"/>
</symbol><symbol id="icon-email" viewBox="0 0 37 39">
<path d="M6.5 6.55664H30.5C32.15 6.55664 33.5 8.01914 33.5 9.80664V29.3067C33.5 31.0942 32.15 32.5567 30.5 32.5567H6.5C4.85 32.5567 3.5 31.0942 3.5 29.3067V9.80664C3.5 8.01914 4.85 6.55664 6.5 6.55664Z" stroke="#F7CB46" stroke-width="2" stroke-linecap="round" stroke-linejoin="round"/>
<path d="M33.5 9.81055L18.5 21.2078L3.5 9.81055" stroke="#F7CB46" stroke-width="2" stroke-linecap="round" stroke-linejoin="round"/>
</symbol><symbol id="icon-logo-white" viewBox="0 0 773 70">
<g clip-path="url(#clip0)">
<path d="M29.1984 70.0002C17.3071 70.0002 7.73678 66.383 0.741883 59.2547L0 58.5015L9.01918 45.836L10.079 46.9392C15.41 52.5188 22.0657 55.351 29.8767 55.351C33.1728 55.351 35.7376 54.7252 37.5075 53.4841C39.1502 52.3279 39.9557 50.9807 39.9557 49.3789C39.9557 48.0742 39.235 46.9816 37.7619 46.0481C36.0555 44.9661 33.8617 44.1706 31.2651 43.6826C28.4671 43.1522 25.383 42.3885 22.0975 41.402C18.8014 40.4154 15.7067 39.2698 12.9088 38.0181C9.93064 36.6922 7.41883 34.5706 5.43694 31.7172C3.44446 28.8425 2.42702 25.3101 2.42702 21.2156C2.42702 15.2435 4.84344 10.173 9.61269 6.12086C14.3289 2.12177 20.6562 0.0957031 28.4141 0.0957031C39.0443 0.0957031 47.8833 3.26739 54.6768 9.52592L55.5247 10.3003L46.2723 22.4991L45.2549 21.555C40.369 17.0361 34.2856 14.7555 27.1529 14.7555C24.5033 14.7555 22.4473 15.2647 21.0483 16.2724C19.7553 17.2059 19.13 18.4364 19.13 20.0381C19.13 20.4412 19.13 21.6611 21.2815 22.9022C23.009 23.8993 25.2028 24.6525 27.8206 25.151C30.6292 25.6814 33.7027 26.4664 36.9564 27.4847C40.2207 28.503 43.2942 29.6805 46.0922 30.964C49.0597 32.3218 51.5609 34.4752 53.5428 37.3604C55.5353 40.2669 56.5527 43.7887 56.5527 47.809C56.5527 54.4176 54.1575 59.8487 49.42 63.922C44.7356 67.9636 37.9314 70.0002 29.1984 70.0002ZM3.29608 58.2257C9.72927 64.3569 18.4305 67.4756 29.1984 67.4756C37.3167 67.4756 43.5591 65.6405 47.7667 62.0127C51.9742 58.3848 54.0197 53.7387 54.0197 47.809C54.0197 44.3085 53.1612 41.2747 51.4549 38.7925C49.738 36.2891 47.5759 34.4327 45.0323 33.2659C42.3297 32.0248 39.3516 30.8898 36.1933 29.9032C33.035 28.9167 30.0569 28.153 27.3437 27.6438C24.4504 27.1028 21.9809 26.2436 20.0097 25.098C17.7416 23.7826 16.597 22.0854 16.597 20.0487C16.597 17.609 17.5932 15.6465 19.5645 14.2357C21.4086 12.9098 23.9522 12.2415 27.1423 12.2415C34.4234 12.2415 40.74 14.4479 45.912 18.797L52.1014 10.6397C45.912 5.33589 37.942 2.64154 28.4141 2.64154C21.2709 2.64154 15.4948 4.46606 11.2554 8.06206C7.0161 11.6581 4.96002 15.9648 4.96002 21.2262C4.96002 24.7904 5.81848 27.8348 7.51422 30.2851C9.23115 32.7567 11.3826 34.5812 13.9262 35.7162C16.6288 36.9255 19.6175 38.0287 22.8076 38.9834C26.0083 39.9487 29.0076 40.6912 31.7102 41.2004C34.6248 41.752 37.1048 42.6643 39.0867 43.916C41.3229 45.3268 42.4569 47.1725 42.4569 49.3895C42.4569 51.8399 41.2699 53.9084 38.9383 55.5526C36.7444 57.1013 33.6921 57.8863 29.8555 57.8863C21.8432 57.8863 14.9436 55.1601 9.30534 49.7714L3.29608 58.2257Z" fill="white"/>
<path d="M99.4442 70C89.3122 70 80.8123 66.6692 74.1777 60.103C67.5432 53.5263 64.1835 45.0826 64.1835 35.0053C64.1835 24.928 67.5432 16.4737 74.1777 9.90756C80.8123 3.33081 89.3122 0 99.4442 0C109.64 0 118.171 3.30959 124.806 9.84392C131.441 16.3888 134.811 24.8538 134.811 34.9947C134.811 45.1462 131.451 53.6112 124.806 60.1455C118.171 66.6904 109.64 70 99.4442 70ZM99.4442 2.52463C90.001 2.52463 82.0947 5.61146 75.9583 11.6897C69.8218 17.7678 66.7059 25.6069 66.7059 34.9947C66.7059 44.3825 69.8218 52.2215 75.9583 58.2997C82.0947 64.3885 90.001 67.4648 99.4442 67.4648C108.951 67.4648 116.889 64.3992 123.036 58.3422C129.172 52.2958 132.278 44.4355 132.278 34.9947C132.278 25.5539 129.162 17.6936 123.036 11.6472C116.889 5.60085 108.951 2.52463 99.4442 2.52463ZM99.4442 57.6845C93.1699 57.6845 88.0404 55.4993 84.1932 51.2032C80.3778 46.9389 78.4489 41.4972 78.4489 35.0053C78.4489 28.524 80.3778 23.0717 84.1932 18.8074C88.0404 14.5007 93.1699 12.3261 99.4442 12.3261C105.718 12.3261 110.859 14.5113 114.748 18.8074C118.595 23.0717 120.545 28.524 120.545 35.0053C120.545 41.4866 118.595 46.9389 114.748 51.2032C110.859 55.4993 105.718 57.6845 99.4442 57.6845ZM99.4442 14.8507C93.8376 14.8507 89.4711 16.6965 86.0691 20.494C82.6882 24.281 80.9713 29.1605 80.9713 35.0053C80.9713 40.8501 82.6882 45.7297 86.0691 49.5166C89.4605 53.3141 93.8376 55.1599 99.4442 55.1599C105.051 55.1599 109.438 53.3141 112.872 49.5166C116.285 45.7297 118.023 40.8501 118.023 35.0159C118.023 29.1711 116.296 24.2916 112.872 20.5046C109.438 16.6965 105.051 14.8507 99.4442 14.8507Z" fill="white"/>
<path d="M178.773 70C168.577 70 159.961 66.7116 153.135 60.2091C146.299 53.7066 142.823 45.2205 142.823 34.9947C142.823 24.7689 146.289 16.2934 153.135 9.78027C159.961 3.28838 168.588 0 178.773 0C191.385 0 200.923 5.57963 207.134 16.5798L207.791 17.7466L193.568 24.7477L192.996 23.6551C191.671 21.1305 189.7 18.9983 187.124 17.3329C184.581 15.6887 181.761 14.8507 178.773 14.8507C173.156 14.8507 168.662 16.7071 165.037 20.5258C161.444 24.3022 159.621 29.1817 159.621 35.0053C159.621 40.8395 161.444 45.7084 165.037 49.4848C168.662 53.3035 173.156 55.1599 178.783 55.1599C181.783 55.1599 184.591 54.3325 187.145 52.7201C189.71 51.0865 191.681 48.9544 192.996 46.3661L193.557 45.2629L207.812 52.1685L207.134 53.346C200.732 64.3992 191.183 70 178.773 70ZM178.773 2.52463C169.255 2.52463 161.211 5.57963 154.873 11.6154C148.557 17.6299 145.346 25.5008 145.346 34.9947C145.346 44.4992 148.546 52.3701 154.873 58.374C161.211 64.4098 169.245 67.4648 178.773 67.4648C189.933 67.4648 198.274 62.808 204.24 53.2293L194.638 48.5831C193.133 51.0971 191.077 53.1975 188.491 54.8416C185.534 56.7298 182.26 57.6845 178.773 57.6845C172.509 57.6845 167.273 55.5099 163.204 51.2244C159.145 46.9601 157.088 41.4972 157.088 35.0053C157.088 28.5028 159.145 23.0505 163.204 18.7862C167.273 14.5007 172.52 12.3261 178.773 12.3261C182.26 12.3261 185.534 13.302 188.491 15.222C191.067 16.8874 193.123 18.9665 194.617 21.4169L204.251 16.6753C198.475 7.16018 190.123 2.52463 178.773 2.52463Z" fill="white"/>
<path d="M233.386 68.8333H216.99V1.07153H233.386V68.8333ZM219.513 66.2981H230.863V3.60677H219.513V66.2981Z" fill="white"/>
<path d="M311.538 68.8332H292.98L288.974 57.78H262.796L258.695 68.8332H240.148L266.336 1.08203H285.456L311.538 68.8332ZM294.75 66.298H307.85L283.717 3.60666H268.064L243.836 66.298H256.946L261.048 55.2448H290.755L294.75 66.298ZM287.851 45.56H263.93L275.896 12.5171L287.851 45.56ZM267.534 43.0248H284.258L275.896 19.9319L267.534 43.0248Z" fill="white"/>
<path d="M362.346 68.8333H318.395V1.07153H334.791V54.0674H362.346V68.8333ZM320.928 66.2981H359.824V56.6027H332.268V3.60677H320.917V66.2981H320.928Z" fill="white"/>
<path d="M389.807 68.8333H373.411V1.07153H389.807V68.8333ZM375.933 66.2981H387.284V3.60677H375.933V66.2981Z" fill="white"/>
<path d="M428.501 70C416.61 70 407.04 66.3828 400.045 59.2544L399.303 58.5013L408.333 45.8357L409.392 46.9389C414.723 52.5186 421.379 55.3508 429.19 55.3508C432.486 55.3508 435.051 54.7249 436.821 53.4838C438.464 52.3276 439.269 50.9804 439.269 49.3787C439.269 48.0739 438.548 46.9813 437.075 46.0479C435.369 44.9659 433.175 44.1703 430.578 43.6824C427.781 43.152 424.696 42.3882 421.411 41.4017C418.115 40.4152 415.02 39.2696 412.222 38.0179C409.255 36.6919 406.743 34.5704 404.761 31.7169C402.758 28.8422 401.751 25.3099 401.751 21.2153C401.751 15.2432 404.167 10.1727 408.937 6.12061C413.642 2.12152 419.97 0.095459 427.728 0.095459C438.358 0.095459 447.197 3.26715 453.99 9.52567L454.838 10.3L445.586 22.4988L444.568 21.5548C439.682 17.0359 433.599 14.7553 426.466 14.7553C423.817 14.7553 421.771 15.2644 420.362 16.2722C419.069 17.2056 418.443 18.4361 418.443 20.0379C418.443 20.441 418.443 21.6608 420.595 22.9019C422.322 23.8991 424.516 24.6522 427.134 25.1508C429.943 25.6812 433.016 26.4661 436.27 27.4845C439.534 28.5134 442.608 29.6802 445.406 30.9638C448.373 32.3216 450.874 34.4749 452.856 37.3602C454.849 40.2667 455.866 43.7884 455.866 47.8087C455.866 54.4173 453.471 59.8484 448.733 63.9218C444.038 67.9633 437.245 70 428.501 70ZM402.599 58.2255C409.032 64.3567 417.733 67.4754 428.501 67.4754C436.62 67.4754 442.862 65.6402 447.069 62.0124C451.277 58.3846 453.322 53.7384 453.322 47.8087C453.322 44.3082 452.464 41.2744 450.758 38.7922C449.041 36.2888 446.879 34.4325 444.335 33.2656C441.633 32.0245 438.654 30.8895 435.496 29.903C432.338 28.9165 429.36 28.1527 426.646 27.6436C423.753 27.1026 421.284 26.2434 419.312 25.0977C417.044 23.7824 415.9 22.0852 415.9 20.0379C415.9 17.5981 416.896 15.6357 418.867 14.2249C420.711 12.8989 423.255 12.2306 426.445 12.2306C433.726 12.2306 440.043 14.437 445.215 18.7862L451.404 10.6289C445.215 5.32504 437.245 2.63069 427.717 2.63069C420.563 2.63069 414.798 4.45521 410.558 8.05121C406.319 11.6472 404.263 15.9539 404.263 21.2153C404.263 24.7795 405.121 27.8239 406.817 30.2743C408.534 32.7459 410.685 34.5704 413.229 35.7054C415.932 36.9147 418.92 38.0179 422.11 38.9726C425.311 39.9379 428.31 40.6804 431.013 41.1896C433.928 41.7412 436.408 42.6534 438.389 43.9051C440.626 45.3159 441.76 47.1617 441.76 49.3787C441.76 51.829 440.573 53.8975 438.241 55.5417C436.047 57.0905 432.995 57.8754 429.158 57.8754C421.146 57.8754 414.246 55.1493 408.608 49.7606L402.599 58.2255Z" fill="white"/>
<path d="M539.773 68.8333H523.271V28.4181L507.024 68.8333H499.256L483.008 28.4287V68.8333H466.613V1.07153H488.17L503.145 38.3575L518.121 1.07153H539.773V68.8333ZM525.804 66.2981H537.251V3.60677H519.827L503.145 45.1358L486.463 3.60677H469.135V66.2981H480.486V15.3707L500.973 66.2981H505.328L525.815 15.3707V66.2981H525.804Z" fill="white"/>
<path d="M566.947 66.298C565.389 67.868 563.524 68.6423 561.383 68.6423C559.232 68.6423 557.377 67.8574 555.819 66.298C554.261 64.7387 553.477 62.8717 553.477 60.729C553.477 58.5862 554.261 56.7193 555.819 55.16C557.388 53.6006 559.242 52.8157 561.383 52.8157C563.535 52.8157 565.389 53.6006 566.947 55.16C568.516 56.7193 569.289 58.5862 569.289 60.729C569.289 62.8717 568.505 64.7281 566.947 66.298Z" fill="white"/>
<path d="M598.106 67.5602H584.233V2.34424H614.714C621.55 2.34424 626.913 4.34909 630.781 8.35879C634.66 12.3685 636.589 17.3753 636.589 23.3686C636.589 29.2983 634.639 34.2839 630.728 38.3254C626.817 42.367 621.476 44.393 614.703 44.393H598.096V67.5602H598.106ZM612.859 32.1624C615.657 32.1624 617.957 31.3668 619.748 29.7651C621.539 28.1633 622.43 26.0312 622.43 23.358C622.43 20.6849 621.539 18.5528 619.748 16.951C617.957 15.3492 615.657 14.5537 612.859 14.5537H598.106V32.1518H612.859V32.1624Z" fill="white"/>
<path d="M697.964 67.5602H682.035L669.232 44.3824H659.068V67.5602H645.195V2.34424H675.676C682.384 2.34424 687.705 4.29605 691.647 8.21028C695.59 12.1245 697.561 17.1738 697.561 23.3686C697.561 28.7149 696.173 33.0534 693.406 36.3736C690.64 39.6938 687.27 41.8154 683.296 42.7276L697.964 67.5602ZM673.63 32.1624C676.492 32.1624 678.844 31.3668 680.667 29.7651C682.49 28.1633 683.402 26.0312 683.402 23.358C683.402 20.6849 682.49 18.5528 680.667 16.951C678.844 15.3492 676.502 14.5537 673.63 14.5537H659.068V32.1518H673.63V32.1624Z" fill="white"/>
<path d="M738.895 68.7377C729.059 68.7377 720.93 65.5554 714.518 59.2014C708.106 52.8474 704.895 44.775 704.895 34.9947C704.895 25.2144 708.106 17.1526 714.518 10.788C720.93 4.43401 729.059 1.25171 738.895 1.25171C748.793 1.25171 756.954 4.41279 763.366 10.735C769.778 17.0571 772.989 25.1402 772.989 34.9841C772.989 44.828 769.778 52.9111 763.366 59.2332C756.954 65.5766 748.793 68.7377 738.895 68.7377ZM724.587 50.3546C728.201 54.3961 732.97 56.4222 738.895 56.4222C744.819 56.4222 749.609 54.3961 753.255 50.3546C756.901 46.3131 758.724 41.2002 758.724 35.0053C758.724 28.8104 756.901 23.6975 753.255 19.656C749.609 15.6145 744.819 13.5884 738.895 13.5884C732.97 13.5884 728.201 15.6145 724.587 19.656C720.973 23.6975 719.16 28.821 719.16 35.0053C719.16 41.2002 720.973 46.3131 724.587 50.3546Z" fill="white"/>
</g>

</symbol><symbol id="icon-logo" viewBox="0 0 300 28">
<path d="M11.31 26.58C6.82 26.58 3.27 25.24 0.650002 22.57L3.56 18.49C5.73 20.76 8.4 21.89 11.57 21.89C12.96 21.89 14.03 21.62 14.8 21.08C15.57 20.54 15.95 19.88 15.95 19.1C15.95 18.42 15.59 17.85 14.87 17.4C14.15 16.95 13.26 16.62 12.19 16.42C11.12 16.22 9.95 15.93 8.69 15.55C7.43 15.17 6.26 14.74 5.19 14.26C4.12 13.78 3.22 13.03 2.51 11.99C1.8 10.96 1.44 9.70004 1.44 8.21004C1.44 6.04004 2.31 4.22004 4.05 2.75004C5.79 1.28004 8.11 0.540039 11.01 0.540039C15.02 0.540039 18.29 1.71004 20.84 4.06004L17.85 7.99004C15.86 6.15004 13.41 5.23004 10.52 5.23004C9.39 5.23004 8.5 5.46004 7.87 5.91004C7.24 6.36004 6.93 6.98004 6.93 7.76004C6.93 8.36004 7.29 8.88004 8.01 9.29004C8.73 9.71004 9.62 10.01 10.69 10.22C11.76 10.42 12.92 10.72 14.17 11.11C15.42 11.5 16.58 11.94 17.65 12.43C18.72 12.92 19.62 13.69 20.33 14.74C21.05 15.79 21.41 17.04 21.41 18.5C21.41 20.92 20.55 22.87 18.82 24.36C17.09 25.84 14.59 26.58 11.31 26.58Z" stroke="#1C002A" stroke-miterlimit="10"/>
<path d="M38.49 26.58C34.68 26.58 31.54 25.35 29.06 22.89C26.58 20.43 25.34 17.31 25.34 13.53C25.34 9.74998 26.58 6.62998 29.06 4.16998C31.54 1.70998 34.69 0.47998 38.49 0.47998C42.32 0.47998 45.48 1.69998 47.96 4.14998C50.44 6.58998 51.68 9.71998 51.68 13.53C51.68 17.34 50.44 20.46 47.96 22.91C45.48 25.36 42.32 26.58 38.49 26.58ZM32.95 19.48C34.35 21.04 36.19 21.82 38.49 21.82C40.78 21.82 42.64 21.04 44.05 19.48C45.46 17.92 46.17 15.94 46.17 13.54C46.17 11.15 45.46 9.16998 44.05 7.59998C42.64 6.03998 40.79 5.25998 38.49 5.25998C36.2 5.25998 34.35 6.03998 32.95 7.59998C31.55 9.15998 30.85 11.14 30.85 13.54C30.85 15.94 31.55 17.91 32.95 19.48Z" stroke="#1C002A" stroke-miterlimit="10"/>
<path d="M69.18 26.58C65.35 26.58 62.16 25.36 59.6 22.93C57.04 20.5 55.76 17.37 55.76 13.54C55.76 9.71 57.04 6.58 59.6 4.15C62.16 1.72 65.35 0.5 69.18 0.5C73.89 0.5 77.41 2.55 79.73 6.66L75.12 8.93C74.56 7.87 73.75 7 72.68 6.3C71.61 5.61 70.44 5.26 69.18 5.26C66.89 5.26 65 6.04 63.51 7.6C62.02 9.16 61.28 11.14 61.28 13.54C61.28 15.93 62.02 17.91 63.51 19.48C65 21.04 66.89 21.82 69.18 21.82C70.44 21.82 71.61 21.48 72.68 20.8C73.75 20.12 74.56 19.24 75.12 18.15L79.73 20.38C77.34 24.52 73.82 26.58 69.18 26.58Z" stroke="#1C002A" stroke-miterlimit="10"/>
<path d="M89.82 26.1299H84.45V0.919922H89.82V26.1299Z" stroke="#1C002A" stroke-miterlimit="10"/>
<path d="M119.84 26.1299H113.72L112.17 21.8599H101.36L99.77 26.1299H93.65L103.4 0.919922H110.13L119.84 26.1299ZM110.69 17.1299L106.76 6.27992L102.83 17.1299H110.69Z" stroke="#1C002A" stroke-miterlimit="10"/>
<path d="M139.72 26.1299H123.69V0.919922H129.06V21.3999H139.72V26.1299Z" stroke="#1C002A" stroke-miterlimit="10"/>
<path d="M150.34 26.1299H144.97V0.919922H150.34V26.1299Z" stroke="#1C002A" stroke-miterlimit="10"/>
<path d="M165.8 26.58C161.31 26.58 157.76 25.24 155.14 22.57L158.05 18.49C160.22 20.76 162.89 21.89 166.06 21.89C167.45 21.89 168.52 21.62 169.29 21.08C170.06 20.54 170.44 19.88 170.44 19.1C170.44 18.42 170.08 17.85 169.36 17.4C168.64 16.95 167.75 16.62 166.68 16.42C165.61 16.22 164.44 15.93 163.18 15.55C161.92 15.17 160.75 14.74 159.68 14.26C158.61 13.78 157.71 13.03 157 11.99C156.28 10.96 155.92 9.70004 155.92 8.21004C155.92 6.04004 156.79 4.22004 158.53 2.75004C160.27 1.28004 162.59 0.540039 165.49 0.540039C169.5 0.540039 172.77 1.71004 175.32 4.06004L172.33 7.99004C170.34 6.15004 167.89 5.23004 165 5.23004C163.87 5.23004 162.98 5.46004 162.35 5.91004C161.72 6.36004 161.4 6.98004 161.4 7.76004C161.4 8.36004 161.76 8.88004 162.48 9.29004C163.2 9.71004 164.09 10.01 165.16 10.22C166.23 10.42 167.39 10.72 168.64 11.11C169.89 11.5 171.05 11.94 172.12 12.43C173.19 12.92 174.09 13.69 174.8 14.74C175.52 15.79 175.88 17.04 175.88 18.5C175.88 20.92 175.02 22.87 173.29 24.36C171.58 25.84 169.08 26.58 165.8 26.58Z" stroke="#1C002A" stroke-miterlimit="10"/>
<path d="M208.37 26.1299H202.96V8.47992L195.85 26.1299H193.51L186.4 8.47992V26.1299H181.03V0.919922H188.55L194.67 16.1499L200.79 0.919922H208.35V26.1299H208.37Z" stroke="#1C002A" stroke-miterlimit="10"/>
<path d="M219.37 25.6399C218.77 26.2399 218.05 26.5499 217.22 26.5499C216.39 26.5499 215.67 26.2499 215.07 25.6399C214.47 25.0399 214.16 24.3199 214.16 23.4899C214.16 22.6599 214.46 21.9399 215.07 21.3399C215.67 20.7399 216.39 20.4299 217.22 20.4299C218.05 20.4299 218.77 20.7299 219.37 21.3399C219.97 21.9399 220.28 22.6599 220.28 23.4899C220.28 24.3199 219.97 25.0299 219.37 25.6399Z" fill="#1C002A"/>
<path d="M231.43 26.1299H226.06V0.919922H237.85C240.5 0.919922 242.57 1.68992 244.07 3.23992C245.57 4.78992 246.32 6.71992 246.32 9.03992C246.32 11.3299 245.56 13.2599 244.05 14.8199C242.54 16.3799 240.47 17.1599 237.85 17.1599H231.42V26.1299H231.43ZM237.13 12.4499C238.21 12.4499 239.1 12.1399 239.8 11.5199C240.49 10.8999 240.84 10.0799 240.84 9.03992C240.84 8.00992 240.49 7.17992 239.8 6.55992C239.11 5.93992 238.22 5.62992 237.13 5.62992H231.42V12.4299H237.13V12.4499Z" fill="#1C002A"/>
<path d="M270.06 26.1299H263.9L258.95 17.1699H255.02V26.1299H249.65V0.919922H261.44C264.04 0.919922 266.1 1.67992 267.62 3.18992C269.14 4.69992 269.91 6.65992 269.91 9.04992C269.91 11.1199 269.37 12.7899 268.3 14.0799C267.23 15.3699 265.92 16.1799 264.39 16.5399L270.06 26.1299ZM260.65 12.4499C261.76 12.4499 262.67 12.1399 263.37 11.5199C264.08 10.8999 264.43 10.0799 264.43 9.03992C264.43 8.00992 264.08 7.17992 263.37 6.55992C262.66 5.93992 261.76 5.62992 260.65 5.62992H255.02V12.4299H260.65V12.4499Z" fill="#1C002A"/>
<path d="M285.9 26.58C282.09 26.58 278.95 25.35 276.47 22.89C273.99 20.43 272.75 17.31 272.75 13.53C272.75 9.74998 273.99 6.62998 276.47 4.16998C278.95 1.70998 282.1 0.47998 285.9 0.47998C289.73 0.47998 292.89 1.69998 295.37 4.14998C297.85 6.58998 299.09 9.71998 299.09 13.53C299.09 17.34 297.85 20.46 295.37 22.91C292.88 25.36 289.73 26.58 285.9 26.58ZM280.36 19.48C281.76 21.04 283.6 21.82 285.9 21.82C288.19 21.82 290.05 21.04 291.46 19.48C292.87 17.92 293.58 15.94 293.58 13.54C293.58 11.15 292.87 9.16998 291.46 7.59998C290.05 6.03998 288.2 5.25998 285.9 5.25998C283.61 5.25998 281.76 6.03998 280.36 7.59998C278.96 9.15998 278.26 11.14 278.26 13.54C278.26 15.94 278.96 17.91 280.36 19.48Z" fill="#1C002A"/>
</symbol></svg>