<svg width="338" height="23" viewBox="0 0 338 23" fill="none" xmlns="http://www.w3.org/2000/svg">
<g clip-path="url(#clip0)">
<path d="M35.68 0C45.09 0 49.89 5.29201 54.12 9.9586C58.2 14.4616 61.73 18.3488 68.97 18.3488C76.21 18.3488 79.73 14.4616 83.82 9.9586C88.05 5.29201 92.85 0 102.26 0C111.67 0 116.47 5.29201 120.7 9.9586C124.78 14.4616 128.31 18.3488 135.55 18.3488C142.79 18.3488 146.31 14.4616 150.4 9.9586C154.63 5.29201 159.43 0 168.84 0C178.25 0 183.05 5.29201 187.28 9.9586C191.36 14.4616 194.89 18.3488 202.13 18.3488C209.37 18.3488 212.89 14.4616 216.97 9.9586C221.2 5.29201 226 0 235.41 0C244.81 0 249.61 5.29201 253.85 9.96823C257.93 14.4712 261.46 18.3585 268.69 18.3585C275.93 18.3585 279.46 14.4712 283.54 9.96823C287.77 5.29201 292.57 0 301.98 0C311.39 0 316.19 5.29201 320.42 9.9586C324.5 14.4616 328.03 18.3488 335.27 18.3488C336.59 18.3488 337.65 19.3784 337.65 20.6388C337.65 21.9089 336.58 22.9288 335.27 22.9288C325.86 22.9288 321.06 17.6368 316.83 12.9606C312.75 8.4576 309.22 4.57037 301.98 4.57037C294.74 4.57037 291.22 8.4576 287.13 12.9606C282.9 17.6272 278.09 22.9288 268.69 22.9288C259.29 22.9288 254.49 17.6368 250.25 12.9606C246.17 8.4576 242.64 4.57037 235.41 4.57037C228.17 4.57037 224.65 8.4576 220.57 12.9606C216.34 17.6272 211.54 22.9288 202.13 22.9288C192.72 22.9288 187.92 17.6368 183.69 12.9606C179.61 8.4576 176.08 4.57037 168.84 4.57037C161.6 4.57037 158.08 8.4576 153.99 12.9606C149.75 17.6272 144.95 22.9288 135.55 22.9288C126.14 22.9288 121.34 17.6368 117.11 12.9606C113.03 8.4576 109.5 4.57037 102.26 4.57037C95.02 4.57037 91.5 8.47684 87.41 12.9799C83.17 17.6465 78.37 22.9481 68.97 22.9481C59.56 22.9481 54.76 17.6561 50.53 12.9799C46.45 8.47684 42.92 4.58962 35.68 4.58962C28.44 4.58962 24.91 8.47684 20.83 12.9799C16.59 17.6465 11.79 22.9385 2.39 22.9385C1.07 22.9481 0 21.9186 0 20.6485C0 19.3784 1.07 18.3585 2.38 18.3585C9.62 18.3585 13.15 14.4712 17.23 9.96823C21.47 5.29201 26.27 0 35.68 0Z" fill="#F7CB46"/>
</g>
<defs>
<clipPath id="clip0">
<rect width="337.65" height="22.9481" fill="white"/>
</clipPath>
</defs>
</svg>
