<svg width="467" height="226" viewBox="0 0 467 226" fill="none" xmlns="http://www.w3.org/2000/svg">
    <g clip-path="url(#clip0)">
        <path d="M377.08 0C414.17 0 444.23 30.07 444.23 67.15V112.59V169.02C445.31 208.51 463.53 223.65 463.64 223.74C464.41 224.25 465.21 224.73 466.05 225.18C466.05 225.18 466.03 225.18 465.99 225.18C431.7 225.16 423.18 213.08 423.18 213.08C423.18 213.08 423.17 213.08 423.17 213.07C413.65 220.64 401.62 225.17 388.51 225.17H57.03C25.53 225.19 0 199.65 0 168.16V112.6V57.04C0 25.53 25.53 0 57.03 0H377.08Z" fill="#FFE792"/>
    </g>
</svg>
