<svg width="155" height="153" viewBox="0 0 155 153" fill="none" xmlns="http://www.w3.org/2000/svg">
<g clip-path="url(#clip0)">
<path d="M148.274 150.34C145.177 150.974 145.023 143.143 145.079 141.504C145.135 139.801 142.49 139.806 142.434 141.504C142.308 145.318 143.209 154.074 148.978 152.893C150.644 152.547 149.939 149.999 148.274 150.34Z" fill="#F7F7F7"/>
<path d="M126.147 147.166C121.883 147.324 117.662 147.857 113.492 148.748C111.827 149.103 112.531 151.656 114.197 151.301C118.143 150.456 122.117 149.961 126.151 149.812C127.844 149.747 127.854 147.1 126.147 147.166Z" fill="#F7F7F7"/>
<path d="M96.4909 149.299C92.9134 148.594 89.8723 146.802 87.5214 144.015C86.4207 142.713 84.5596 144.594 85.651 145.887C88.2677 148.986 91.8079 151.068 95.7913 151.852C97.4518 152.179 98.1607 149.63 96.4909 149.299Z" fill="#F7F7F7"/>
<path d="M69.8109 142.839C69.13 146.176 66.6112 148.682 63.2716 149.345C61.6064 149.677 62.3107 152.23 63.9759 151.898C68.1458 151.067 71.5134 147.712 72.3623 143.544C72.7028 141.877 70.1514 141.168 69.8109 142.839Z" fill="#F7F7F7"/>
<path d="M42.5294 148.23C37.4266 149.541 32.2445 149.901 27.0065 149.35C25.318 149.172 25.3274 151.819 27.0065 151.996C32.4684 152.57 37.9117 152.15 43.229 150.783C44.8802 150.358 44.1805 147.81 42.5294 148.23Z" fill="#F7F7F7"/>
<path d="M12.2626 149.616C10.812 145.065 15.5789 142.312 18.9046 140.496C20.3972 139.679 19.0678 137.397 17.5706 138.214C13.1302 140.636 7.85948 144.51 9.71122 150.321C10.229 151.931 12.785 151.24 12.2626 149.616Z" fill="#F7F7F7"/>
<path d="M2.6168 138.737C3.6756 135.367 5.34076 132.314 7.63094 129.621C8.72706 128.333 6.866 126.452 5.76055 127.75C3.17185 130.793 1.26415 134.219 0.0654175 138.032C-0.442993 139.661 2.10839 140.361 2.6168 138.737Z" fill="#F7F7F7"/>
<path d="M9.13282 109.104C6.92659 108.072 4.97691 106.597 3.49365 104.651C2.47217 103.316 0.177321 104.632 1.2128 105.986C2.98058 108.296 5.15881 110.149 7.80348 111.386C9.32872 112.105 10.672 109.827 9.13282 109.104Z" fill="#F7F7F7"/>
<path d="M3.3724 91.0925C4.23997 87.592 5.99842 84.5862 8.61976 82.1126C9.86047 80.941 7.99008 79.0741 6.74937 80.241C3.81552 83.004 1.7912 86.4765 0.821022 90.3877C0.410562 92.04 2.96194 92.7448 3.3724 91.0925Z" fill="#F7F7F7"/>
<path d="M9.70182 65.8232C7.98069 63.0602 6.86125 60.1197 6.28754 56.9179C5.98902 55.2424 3.43764 55.9518 3.73616 57.6227C4.34718 61.0252 5.58789 64.227 7.4163 67.1627C8.31652 68.6003 10.6067 67.2748 9.70182 65.8232Z" fill="#F7F7F7"/>
<path d="M1.22209 36.3492C4.72033 38.5988 8.21857 40.8438 11.7168 43.0935C13.1534 44.0176 14.4781 41.726 13.0508 40.8112C9.55256 38.5615 6.05433 36.3165 2.55609 34.0669C1.12414 33.1427 -0.205192 35.4297 1.22209 36.3492Z" fill="#F7F7F7"/>
<path d="M6.72602 26.8606C8.90893 24.0649 11.7029 21.9366 15.0378 20.7091C16.6237 20.1257 15.9381 17.568 14.3335 18.156C10.5741 19.5422 7.32772 21.8199 4.85097 24.989C3.82015 26.3192 5.67655 28.2048 6.72602 26.8606Z" fill="#F7F7F7"/>
<path d="M5.96106 6.41258C5.24276 4.93303 4.81364 3.34614 4.68304 1.7079C4.55244 0.0229939 1.90777 0.00899181 2.03837 1.7079C2.20629 3.83621 2.74735 5.82916 3.67555 7.7521C4.42184 9.27832 6.70269 7.9388 5.96106 6.41258Z" fill="#F7F7F7"/>
<path d="M17.8691 4.62514C20.8356 8.97043 24.04 13.1384 27.4776 17.1196C28.5923 18.4125 30.4534 16.5315 29.348 15.248C26.0549 11.4348 22.9905 7.44888 20.1499 3.29028C19.1937 1.89475 16.9036 3.21561 17.8691 4.62514Z" fill="#F7F7F7"/>
<path d="M36.1252 8.17262C39.3295 7.04779 42.5759 6.06298 45.8643 5.21819C47.5108 4.79346 46.8111 2.24043 45.1599 2.66516C41.8716 3.50995 38.6252 4.49475 35.4208 5.61958C33.8256 6.17966 34.5113 8.73736 36.1252 8.17262Z" fill="#F7F7F7"/>
<path d="M64.5122 9.21812C64.0598 12.7466 63.6074 16.2705 63.1596 19.799C62.945 21.4839 65.5897 21.4652 65.8043 19.799C66.2567 16.2705 66.7091 12.7466 67.1569 9.21812C67.3715 7.53321 64.7221 7.55188 64.5122 9.21812Z" fill="#F7F7F7"/>
<path d="M81.4671 9.36719C79.1956 6.84216 77.3205 4.05109 75.7953 1.01732C75.0303 -0.504227 72.7495 0.835299 73.5144 2.35218C75.1376 5.58665 77.1806 8.54574 79.5967 11.2388C80.7348 12.5083 82.6005 10.632 81.4671 9.36719Z" fill="#F7F7F7"/>
<path d="M93.6223 2.58091C96.1504 3.08032 98.1234 4.87724 98.7811 7.37894C99.2149 9.02651 101.766 8.32641 101.332 6.67417C100.456 3.33702 97.7223 0.699978 94.3267 0.0278809C92.6662 -0.298833 91.9525 2.24953 93.6223 2.58091Z" fill="#F7F7F7"/>
<path d="M121.37 2.9265C116.24 3.72928 111.832 6.76305 109.131 11.183C108.24 12.6392 110.526 13.9694 111.412 12.5179C113.781 8.63465 117.597 6.17963 122.07 5.47486C123.749 5.21349 123.04 2.66513 121.37 2.9265Z" fill="#F7F7F7"/>
<path d="M138.05 4.35943C138.05 7.00581 138.05 9.65219 138.05 12.2986C138.05 14.0021 140.695 14.0021 140.695 12.2986C140.695 9.65219 140.695 7.00581 140.695 4.35943C140.695 2.66052 138.05 2.65585 138.05 4.35943Z" fill="#F7F7F7"/>
<path d="M152.505 10.8563C149.944 14.8562 147.145 18.6834 144.095 22.3286C143.008 23.6261 144.869 25.5071 145.965 24.2002C149.156 20.3823 152.104 16.3824 154.785 12.1958C155.709 10.7536 153.419 9.4281 152.505 10.8563Z" fill="#F7F7F7"/>
<path d="M149.734 39.3783C147.169 37.754 144.412 36.5125 141.502 35.6537C139.864 35.173 139.169 37.726 140.797 38.2068C143.503 39.0049 146.012 40.153 148.395 41.6653C149.841 42.5754 151.171 40.2884 149.734 39.3783Z" fill="#F7F7F7"/>
<path d="M132.089 21.3203C130.648 20.2701 129.5 18.9073 128.637 17.3484C127.812 15.8595 125.526 17.1943 126.356 18.6832C127.448 20.6528 128.945 22.2817 130.76 23.6026C131.343 24.0273 132.229 23.6959 132.569 23.1265C132.961 22.4684 132.663 21.7403 132.089 21.3203Z" fill="#F7F7F7"/>
<path d="M145.695 53.1094C147.351 56.0872 148.624 59.2003 149.538 62.4861C149.995 64.1244 152.547 63.4289 152.089 61.7813C151.119 58.2855 149.743 54.9437 147.98 51.7746C147.15 50.2857 144.869 51.6159 145.695 53.1094Z" fill="#F7F7F7"/>
<path d="M144.655 73.6272C141.716 73.4031 138.829 73.5618 135.923 74.0286C134.248 74.2993 134.957 76.8476 136.627 76.5816C139.291 76.1522 141.963 76.0682 144.655 76.2736C146.352 76.3996 146.343 73.7532 144.655 73.6272Z" fill="#F7F7F7"/>
<path d="M140.438 84.8379C142.453 87.6616 144.473 90.4807 146.488 93.3044C147.467 94.6766 149.762 93.3558 148.769 91.9696C146.754 89.1458 144.734 86.3268 142.719 83.503C141.739 82.1308 139.449 83.447 140.438 84.8379Z" fill="#F7F7F7"/>
<path d="M150.742 108.002C149.286 109.916 147.491 111.531 145.462 112.819C144.03 113.729 145.354 116.021 146.796 115.101C149.23 113.556 151.283 111.629 153.022 109.337C154.058 107.984 151.758 106.663 150.742 108.002Z" fill="#F7F7F7"/>
<path d="M149.314 128.403C146.954 127.386 144.804 126.032 142.901 124.301C141.646 123.157 139.766 125.024 141.03 126.172C143.097 128.053 145.41 129.579 147.98 130.686C149.524 131.358 150.872 129.08 149.314 128.403Z" fill="#F7F7F7"/>
<path d="M128.861 131.012C127.97 133.308 125.349 134.559 122.998 133.976C121.347 133.565 120.643 136.118 122.294 136.529C126.147 137.486 129.985 135.381 131.408 131.717C132.028 130.13 129.472 129.439 128.861 131.012Z" fill="#F7F7F7"/>
<path d="M101.388 134.349C101.86 132.141 102.755 130.097 104.164 128.319C105.209 126.998 103.347 125.112 102.293 126.447C100.605 128.585 99.4108 130.97 98.8417 133.644C98.4826 135.306 101.029 136.015 101.388 134.349Z" fill="#F7F7F7"/>
<path d="M83.3981 123.777C79.3774 124.24 75.632 125.472 72.1664 127.577C70.7158 128.459 72.0405 130.75 73.5004 129.859C76.5462 128.006 79.8532 126.825 83.3981 126.419C85.0679 126.228 85.0866 123.581 83.3981 123.777Z" fill="#F7F7F7"/>
<path d="M54.3114 133.052C51.0884 133.407 47.8607 133.766 44.6376 134.121C42.9631 134.307 42.9445 136.954 44.6376 136.767C47.8607 136.412 51.0884 136.053 54.3114 135.698C55.9859 135.512 56.0046 132.865 54.3114 133.052Z" fill="#F7F7F7"/>
<path d="M37.7858 132.478C36.2605 129.187 34.1383 126.251 31.5029 123.759C30.2669 122.587 28.3918 124.459 29.6325 125.631C32.1186 127.983 34.0636 130.709 35.5002 133.812C36.2186 135.357 38.4994 134.013 37.7858 132.478Z" fill="#F7F7F7"/>
<path d="M19.9634 119.012C20.2385 115.834 21.4 112.973 23.2983 110.424C24.3152 109.057 22.0203 107.736 21.0175 109.09C18.8346 112.021 17.6359 115.381 17.3233 119.012C17.1741 120.711 19.8188 120.697 19.9634 119.012Z" fill="#F7F7F7"/>
<path d="M14.8419 99.1853C14.7673 97.043 15.4902 95.1154 17.0015 93.5798C18.1955 92.3663 16.3252 90.4947 15.1311 91.7082C13.1581 93.7152 12.1039 96.3662 12.1972 99.1853C12.2579 100.88 14.9025 100.889 14.8419 99.1853Z" fill="#F7F7F7"/>
<path d="M27.4775 77.9633C24.7023 75.597 22.4914 72.7032 21.0688 69.3334C20.4158 67.7885 17.8597 68.4653 18.5174 70.0382C20.1219 73.8421 22.4541 77.1512 25.6072 79.8349C26.8992 80.9318 28.7789 79.0695 27.4775 77.9633Z" fill="#F7F7F7"/>
<path d="M23.9327 56.8341C23.6668 54.3744 23.9234 52.0268 24.7256 49.6838C25.2807 48.0689 22.7293 47.3781 22.1743 48.979C21.302 51.518 20.9942 54.1597 21.2834 56.8341C21.47 58.5097 24.1146 58.5284 23.9327 56.8341Z" fill="#F7F7F7"/>
<path d="M30.3322 29.8104C26.2695 28.3915 21.7032 29.6097 18.8859 32.8675C17.7758 34.151 19.6415 36.0272 20.7563 34.7391C23.0045 32.1347 26.3815 31.2292 29.6278 32.3587C31.237 32.9235 31.9274 30.3658 30.3322 29.8104Z" fill="#F7F7F7"/>
<path d="M41.4145 26.7766C41.7597 25.4557 44.8008 24.7089 45.8969 24.2282C47.6227 23.4721 49.3439 22.716 51.0697 21.9645C52.6229 21.2831 51.2796 19.0008 49.7357 19.6822C47.2729 20.7604 44.8055 21.8339 42.3474 22.9213C40.7802 23.6121 39.3342 24.3075 38.8678 26.0811C38.434 27.7194 40.9854 28.4241 41.4145 26.7766Z" fill="#F7F7F7"/>
<path d="M36.6057 41.9079C36.1999 44.2322 36.0739 46.5425 36.2931 48.8949C36.4471 50.5751 39.0964 50.5938 38.9378 48.8949C38.7419 46.7899 38.7932 44.6989 39.157 42.6126C39.4462 40.9464 36.8995 40.2276 36.6057 41.9079Z" fill="#F7F7F7"/>
<path d="M39.4042 72.7498C38.0702 69.296 39.059 65.3428 42.1375 63.1678C43.5181 62.1923 42.1981 59.896 40.8035 60.8855C36.8202 63.6999 35.0664 68.8386 36.8528 73.4546C37.4639 75.0228 40.0199 74.3414 39.4042 72.7498Z" fill="#F7F7F7"/>
<path d="M34.1242 102.298C33.0981 99.162 33.4292 96.0115 35.1271 93.1785C36.0039 91.7129 33.7184 90.3827 32.8462 91.8436C30.8079 95.2508 30.3415 99.2273 31.5775 103.003C32.0999 104.613 34.656 103.923 34.1242 102.298Z" fill="#F7F7F7"/>
<path d="M41.5358 112.837C41.4192 115.535 41.9603 118.098 43.0471 120.557C43.7327 122.111 46.0136 120.767 45.3279 119.222C44.4324 117.192 44.0826 115.045 44.1759 112.837C44.2551 111.134 41.6105 111.139 41.5358 112.837Z" fill="#F7F7F7"/>
<path d="M60.9814 122.643C62.2967 120.58 64.7455 119.507 67.1523 119.992C68.8128 120.328 69.5264 117.78 67.8566 117.439C64.2558 116.711 60.6782 118.195 58.7006 121.304C57.7817 122.746 60.0672 124.076 60.9814 122.643Z" fill="#F7F7F7"/>
<path d="M101.915 115.488C99.8679 113.832 97.503 112.912 94.863 112.833C93.1606 112.781 93.1606 115.428 94.863 115.479C96.7568 115.535 98.5665 116.161 100.045 117.36C101.36 118.424 103.24 116.562 101.915 115.488Z" fill="#F7F7F7"/>
<path d="M117.62 120.086C120.848 119.054 124.099 118.728 127.467 119.068C129.16 119.241 129.146 116.595 127.467 116.422C123.875 116.053 120.354 116.431 116.916 117.533C115.302 118.051 115.992 120.604 117.62 120.086Z" fill="#F7F7F7"/>
<path d="M134.71 106.355C134.402 104.511 135.163 102.523 136.651 101.384C137.98 100.362 136.665 98.0608 135.317 99.1016C132.803 101.034 131.641 103.928 132.164 107.064C132.439 108.735 134.99 108.021 134.71 106.355Z" fill="#F7F7F7"/>
<path d="M123.945 89.9066C123.945 86.5275 123.945 83.1437 123.945 79.7645C123.945 78.0609 121.3 78.0609 121.3 79.7645C121.3 83.1437 121.3 86.5275 121.3 89.9066C121.305 91.6102 123.945 91.6149 123.945 89.9066Z" fill="#F7F7F7"/>
<path d="M132.182 62.4536C132.574 61.0487 132.961 59.6485 133.353 58.2436C133.549 57.5389 133.955 54.8225 134.967 54.6871C136.632 54.4678 136.651 51.8214 134.967 52.0407C133.241 52.2694 132.271 53.2776 131.618 54.8645C130.727 57.0488 130.265 59.4805 129.631 61.7488C129.178 63.3917 131.725 64.0965 132.182 62.4536Z" fill="#F7F7F7"/>
<path d="M127.882 42.7248C127.891 39.1683 127.49 35.6631 126.683 32.1953C126.296 30.5384 123.749 31.2385 124.132 32.9C124.883 36.1438 125.246 39.397 125.232 42.7248C125.232 44.4284 127.877 44.4284 127.882 42.7248Z" fill="#F7F7F7"/>
<path d="M111.813 26.4123C108.399 25.0727 105.633 22.3377 104.262 18.9305C103.632 17.3716 101.076 18.0531 101.71 19.6353C103.464 23.9899 106.738 27.2524 111.109 28.9653C112.695 29.5861 113.38 27.0284 111.813 26.4123Z" fill="#F7F7F7"/>
<path d="M92.3023 26.0014C88.9393 27.369 85.581 28.7365 82.218 30.104C80.6602 30.7388 81.3411 33.2965 82.9223 32.6571C86.2853 31.2895 89.6436 29.922 93.0066 28.5545C94.5598 27.9197 93.8788 25.3573 92.3023 26.0014Z" fill="#F7F7F7"/>
<path d="M62.4646 42.0807C64.377 41.0539 66.2847 40.0271 68.1971 38.9956C69.6943 38.1881 68.3604 35.9058 66.8631 36.7133C64.9507 37.7401 63.043 38.7669 61.1307 39.7984C59.6334 40.6011 60.9674 42.8881 62.4646 42.0807Z" fill="#F7F7F7"/>
<path d="M51.1723 37.4368C51.3356 40.4005 51.8253 43.299 52.6789 46.1414C53.1687 47.7703 55.72 47.0748 55.2303 45.4366C54.4467 42.8182 53.9663 40.1672 53.817 37.4368C53.7237 35.7425 51.079 35.7332 51.1723 37.4368Z" fill="#F7F7F7"/>
<path d="M58.626 57.3613C53.5652 56.1478 53.346 65.2818 53.4159 68.3015C53.4532 70.0004 56.0979 70.0098 56.0606 68.3015C56.0419 67.3774 56.3031 59.5223 57.9263 59.9143C59.5775 60.311 60.2818 57.758 58.626 57.3613Z" fill="#F7F7F7"/>
<path d="M52.6276 84.1475C51.1444 84.4836 49.6611 84.2922 48.3178 83.5828C46.8112 82.794 45.4726 85.0763 46.9838 85.8651C48.9755 86.9106 51.1397 87.1953 53.3319 86.6959C54.9878 86.3225 54.2881 83.7695 52.6276 84.1475Z" fill="#F7F7F7"/>
<path d="M47.1143 97.5657C50.4213 100.114 52.8841 103.554 54.2834 107.484C54.8525 109.075 57.4085 108.389 56.8348 106.779C55.179 102.13 52.3477 98.2845 48.4483 95.2787C47.1004 94.2426 45.785 96.5436 47.1143 97.5657Z" fill="#F7F7F7"/>
<path d="M69.8576 101.253C73.3278 102.518 76.3643 104.52 78.9437 107.157C80.1331 108.375 82.0035 106.504 80.8141 105.286C77.9082 102.313 74.4613 100.124 70.5619 98.7C68.9574 98.1213 68.267 100.674 69.8576 101.253Z" fill="#F7F7F7"/>
<path d="M114.206 102.999C111.487 102.308 109.416 100.264 108.702 97.5474C108.268 95.8999 105.722 96.6 106.151 98.2522C107.088 101.832 109.915 104.642 113.502 105.552C115.153 105.967 115.857 103.419 114.206 102.999Z" fill="#F7F7F7"/>
<path d="M114.691 68.3113C112.583 68.2879 111.561 69.9728 110.806 71.7231C109.677 74.3321 108.912 77.0345 108.455 79.8396C108.184 81.5058 110.731 82.2199 111.006 80.5444C111.272 78.9248 111.617 77.3379 112.112 75.7697C112.429 74.7615 113.334 70.9436 114.696 70.9623C116.394 70.9763 116.394 68.3299 114.691 68.3113Z" fill="#F7F7F7"/>
<path d="M117.471 55.3823C115.274 52.9553 114.192 49.9589 114.253 46.6917C114.285 44.9882 111.641 44.9882 111.608 46.6917C111.533 50.659 112.947 54.3182 115.601 57.2493C116.748 58.5188 118.614 56.6425 117.471 55.3823Z" fill="#F7F7F7"/>
<path d="M103.669 38.8414C100.978 38.5474 98.5571 37.4786 96.4255 35.831C95.0822 34.7902 93.7622 37.0865 95.0915 38.1133C97.6102 40.0596 100.516 41.1424 103.669 41.4831C105.358 41.6698 105.344 39.0234 103.669 38.8414Z" fill="#F7F7F7"/>
<path d="M82.4139 49.8426C81.7842 53.0117 79.9185 55.6021 77.0873 57.1657C75.5947 57.9871 76.9287 60.2741 78.4213 59.448C81.8075 57.5811 84.205 54.3419 84.9606 50.5427C85.2918 48.8811 82.7451 48.1717 82.4139 49.8426Z" fill="#F7F7F7"/>
<path d="M65.2353 76.6845C65.5431 80.6097 66.5646 84.3202 68.3137 87.8487C69.0693 89.375 71.3502 88.0354 70.5946 86.5139C69.06 83.4148 68.1458 80.129 67.8753 76.6845C67.7493 74.9996 65.1047 74.9856 65.2353 76.6845Z" fill="#F7F7F7"/>
<path d="M84.0418 93.2906C86.4439 94.6301 88.7108 96.1656 90.819 97.9299C92.1157 99.0127 93.9954 97.1504 92.6894 96.0583C90.4039 94.1493 87.9785 92.4551 85.3758 91.0082C83.8879 90.1774 82.5539 92.4598 84.0418 93.2906Z" fill="#F7F7F7"/>
<path d="M98.823 87.783C98.0767 84.6512 96.099 82.0095 93.3331 80.3759C91.8638 79.5078 90.5345 81.7948 91.9991 82.6583C94.2053 83.9605 95.6793 85.9954 96.2763 88.4831C96.6681 90.14 99.2195 89.4399 98.823 87.783Z" fill="#F7F7F7"/>
<path d="M78.9951 80.2826C78.0202 77.0528 78.5473 73.8603 80.4597 71.0832C81.4252 69.6784 79.135 68.3528 78.1788 69.7484C75.8979 73.0622 75.2869 77.1368 76.4483 80.9873C76.9334 82.6116 79.4895 81.9161 78.9951 80.2826Z" fill="#F7F7F7"/>
<path d="M103.366 62.1131C100.194 63.5133 97.6057 65.931 95.9358 68.9601C95.1149 70.4536 97.3958 71.7885 98.2167 70.2949C99.6953 67.6159 101.911 65.6322 104.7 64.3954C106.253 63.7093 104.91 61.4316 103.366 62.1131Z" fill="#F7F7F7"/>
<path d="M91.9198 59.476C92.0224 57.4037 92.932 55.6115 94.4619 54.2299C95.7259 53.0864 93.8508 51.2195 92.5915 52.3583C90.5485 54.2113 89.4151 56.7316 89.2752 59.476C89.1912 61.1749 91.8359 61.1702 91.9198 59.476Z" fill="#F7F7F7"/>
</g>
<defs>
<clipPath id="clip0">
<rect width="155" height="153" fill="white"/>
</clipPath>
</defs>
</svg>
