<svg width="109" height="109" viewBox="0 0 109 109" fill="none" xmlns="http://www.w3.org/2000/svg">
<path d="M54.5 0C24.3948 0 0 24.3948 0 54.5C0 84.6052 24.3948 109 54.5 109C84.5895 109 109 84.6052 109 54.5C109 24.3948 84.5895 0 54.5 0ZM77.0122 73.1687C77.0907 66.9092 79.9145 48.2562 76.0239 43.3615C73.5295 40.1926 69.7173 38.2786 65.811 37.2589C66.1875 37.4942 66.2817 38.0904 65.9993 38.4198C62.2969 39.2827 58.3906 39.2513 54.7196 38.3414C55.5982 39.0944 56.4767 39.8474 57.3552 40.6161C49.574 42.1536 40.1455 44.648 33.3526 40.5691C31.7838 43.8792 31.5485 47.6444 31.3446 51.2997C31.0151 57.2768 29.9797 65.9208 33.1644 74.7061C25.7283 69.9526 27.4226 58.5946 26.8107 53.1351C26.4499 50.0289 27.0774 37.7766 29.7601 34.6077C26.7009 34.843 27.4069 34.0586 24.6929 32.0348C27.5167 30.8582 30.6229 30.3562 33.6664 30.5758C30.9837 29.7444 29.1482 26.8107 29.5561 24.034C32.2388 25.4459 34.592 27.501 36.3647 29.964C37.557 27.4069 40.6161 23.7516 43.3302 22.9986C63.803 17.2568 76.5102 26.5597 79.8674 31.5799C83.6482 37.2432 85.2014 41.3221 86.629 46.4678C88.5115 53.2293 79.6635 68.5094 77.0122 73.1687Z" fill="white"/>
<path d="M76.0239 43.3614C73.5295 40.1924 69.7173 38.2785 65.811 37.2588C66.1875 37.4941 66.2817 38.0903 65.9993 38.4197C62.2969 39.2825 58.3906 39.2512 54.7196 38.3413C55.5982 39.0943 56.4767 39.8473 57.3552 40.616C49.574 42.1534 40.1455 44.6478 33.3526 40.569C31.7838 43.8791 31.5485 47.6442 31.3446 51.2995C31.0151 57.2766 29.9797 65.9207 33.1644 74.706C35.0155 78.8319 38.765 84.0874 42.8125 86.5661C46.1069 88.5898 49.6995 89.8605 53.5744 89.8762C57.6062 89.8762 62.7989 89.0761 66.0777 86.6916C72.7922 81.7812 74.9571 79.7732 77.0122 73.1685C77.0907 66.909 79.9145 48.2561 76.0239 43.3614ZM43.9577 60.1162C43.1262 60.1162 42.4673 58.8611 42.4673 57.308C42.4673 55.7549 43.1262 54.4999 43.9577 54.4999C44.7735 54.4999 45.4324 55.7549 45.4324 57.308C45.4324 58.8611 44.7735 60.1162 43.9577 60.1162ZM66.062 60.1162C65.2463 60.1162 64.5717 58.8611 64.5717 57.308C64.5717 55.7549 65.2463 54.4999 66.062 54.4999C66.8778 54.4999 67.5524 55.7549 67.5524 57.308C67.5524 58.8611 66.8778 60.1162 66.062 60.1162Z" fill="white"/>
<path d="M66.062 59.3319C65.9052 59.3319 66.1248 59.3319 66.1091 59.3476C66.1091 59.3476 66.015 59.3319 66.015 59.3162C66.1718 59.379 66.0307 59.3162 65.9679 59.2692C66.0934 59.3476 65.9836 59.2848 65.9208 59.2221C65.8895 59.1907 65.8581 59.1593 65.8424 59.128C65.7796 59.0652 65.9051 59.2221 65.8267 59.0966C65.7796 59.0181 65.7326 58.9397 65.6855 58.8456C65.6698 58.7985 65.6385 58.7515 65.6228 58.7044C65.6385 58.7358 65.6698 58.8299 65.6071 58.673C65.5286 58.4534 65.4659 58.2338 65.4188 58.0141C65.3874 57.8102 65.3718 57.6376 65.3561 57.3866C65.3561 57.1827 65.3718 56.8532 65.3874 56.7277C65.4188 56.5081 65.4659 56.2884 65.5286 56.0845C65.5443 56.0374 65.56 55.9747 65.5757 55.9276C65.5757 55.9119 65.6385 55.7551 65.6071 55.8335C65.5757 55.9119 65.6385 55.7707 65.6541 55.7551C65.6855 55.708 65.7169 55.6452 65.7483 55.5982C65.7796 55.5511 65.9208 55.3629 65.8267 55.4727C65.8738 55.4099 65.9208 55.3629 65.9836 55.3158C66.1091 55.1903 65.9052 55.3472 66.062 55.2687C66.0934 55.253 66.2032 55.2217 66.0934 55.253C65.9679 55.3001 66.1562 55.253 66.1562 55.253C66.1562 55.2687 65.9522 55.2687 66.1091 55.2687C66.1718 55.2687 66.2189 55.3001 66.062 55.253C66.0934 55.253 66.1091 55.2687 66.1405 55.2687C66.2346 55.3158 66.015 55.1746 66.0934 55.253C66.1091 55.2687 66.1562 55.3001 66.1875 55.3001C66.266 55.3158 66.1091 55.206 66.1718 55.2844C66.2346 55.3472 66.313 55.4099 66.3601 55.4884C66.2503 55.3629 66.4072 55.5668 66.4385 55.6139C66.4856 55.6923 66.517 55.7707 66.564 55.8492C66.6268 55.959 66.5327 55.7551 66.5797 55.8806C66.5954 55.9276 66.6111 55.9747 66.6268 56.0374C66.6739 56.1629 66.7052 56.2884 66.7366 56.3983C66.8464 56.8375 66.8464 57.2925 66.8151 57.7945C66.7994 57.9671 66.7523 58.2338 66.6739 58.4691C66.6425 58.5789 66.6111 58.673 66.564 58.7828C66.6111 58.673 66.564 58.7985 66.5484 58.8142C66.517 58.8613 66.4856 58.924 66.4699 58.9711C66.4542 59.0181 66.2817 59.2535 66.3758 59.128C66.313 59.2064 66.2503 59.2535 66.1875 59.3319C66.1248 59.3947 66.2973 59.3005 66.2032 59.3162C66.1718 59.3162 66.1248 59.3633 66.0777 59.379C66.0307 59.3476 66.1875 59.2848 66.062 59.3319C65.9052 59.379 66.2346 59.3319 66.062 59.3319C65.6385 59.3476 65.2776 59.677 65.2776 60.1163C65.2776 60.5242 65.6385 60.9164 66.062 60.9007C67.3171 60.8536 67.9916 59.5829 68.2113 58.5004C68.4623 57.2611 68.3838 55.7237 67.6151 54.6569C67.2857 54.1863 66.8464 53.8097 66.266 53.7313C65.7012 53.6529 65.1678 53.8882 64.7756 54.2961C63.8971 55.206 63.6775 56.6806 63.803 57.8886C63.9442 59.1437 64.5403 60.8536 66.0463 60.9007C66.4699 60.9164 66.8307 60.5242 66.8307 60.1163C66.8464 59.677 66.4856 59.3476 66.062 59.3319Z" fill="#221F20"/>
<path d="M43.9577 59.3318C43.8165 59.3318 43.9891 59.3475 44.0047 59.3475C44.0204 59.3475 43.9106 59.3161 43.9106 59.3161C43.8949 59.3632 43.7381 59.1436 43.9577 59.3318C43.942 59.3161 43.8792 59.3004 43.8636 59.2848C43.8165 59.2534 43.8008 59.2063 43.8949 59.3004C43.8636 59.2691 43.8322 59.2534 43.8165 59.222C43.7851 59.1906 43.7537 59.1593 43.7381 59.1279C43.7851 59.1749 43.7851 59.2063 43.7381 59.1279C43.691 59.0494 43.6439 58.971 43.5969 58.8926C43.5812 58.8455 43.5498 58.7984 43.5341 58.7671C43.5812 58.8769 43.5341 58.7671 43.5184 58.7514C43.44 58.5317 43.3772 58.3121 43.3302 58.0768C43.2674 57.716 43.2517 57.1669 43.2988 56.759C43.3145 56.6021 43.3772 56.3354 43.44 56.1472C43.4714 56.053 43.5027 55.9746 43.5341 55.8805C43.5969 55.7236 43.5655 55.8334 43.5498 55.8648C43.5812 55.802 43.6125 55.7393 43.6439 55.6765C43.691 55.6138 43.7224 55.5353 43.7694 55.4726C43.8322 55.3785 43.691 55.5667 43.7694 55.4726C43.8008 55.4412 43.8322 55.4098 43.8479 55.3785C43.9891 55.2373 43.7694 55.4412 43.9106 55.3314C43.9263 55.3157 43.9577 55.3157 43.9734 55.2843C43.8792 55.3785 43.8636 55.3 43.9734 55.2843C44.0204 55.2843 44.1303 55.2686 43.9106 55.2843C43.942 55.2843 43.9891 55.2843 44.0204 55.2843C43.9891 55.2843 43.8322 55.2373 43.9577 55.2843C43.9734 55.2843 44.0675 55.3157 43.9577 55.2843C43.8165 55.2373 44.1303 55.3941 44.0204 55.3157C43.9263 55.2529 44.0361 55.3314 44.0518 55.3471C44.0832 55.3785 44.1303 55.4255 44.1616 55.4569C44.2558 55.551 44.1773 55.4726 44.1616 55.4569C44.193 55.4883 44.2087 55.5353 44.2401 55.5667C44.2871 55.6451 44.3342 55.7393 44.3813 55.8177C44.3969 55.8334 44.444 55.9589 44.3969 55.8491C44.4126 55.8805 44.4283 55.9275 44.444 55.9589C44.4911 56.0844 44.5225 56.1942 44.5538 56.3197C44.6636 56.7747 44.695 57.2296 44.648 57.7473C44.6166 58.1395 44.4754 58.6572 44.3028 58.971C44.2871 59.0024 44.1146 59.2534 44.2244 59.1279C44.1616 59.2063 44.0989 59.2534 44.0361 59.3318C43.9734 59.3946 44.1459 59.3004 44.0518 59.3161C44.0204 59.3161 43.9734 59.3632 43.9263 59.3789C43.9263 59.3475 44.0832 59.2848 43.9577 59.3318C43.8008 59.3789 44.1303 59.3318 43.9577 59.3318C43.5341 59.3475 43.1733 59.677 43.1733 60.1162C43.1733 60.5241 43.5341 60.9163 43.9577 60.9006C45.2284 60.8536 45.903 59.5515 46.1069 58.4533C46.3423 57.1983 46.2638 55.6608 45.4794 54.5941C45.1343 54.1234 44.648 53.7469 44.0361 53.7155C43.5184 53.6842 43.0007 53.9352 42.6556 54.3274C41.7927 55.2686 41.5888 56.7433 41.73 57.967C41.8712 59.2063 42.483 60.8536 43.9577 60.9006C44.3813 60.9163 44.7421 60.5241 44.7421 60.1162C44.7421 59.677 44.3813 59.3475 43.9577 59.3318Z" fill="#221F20"/>
<path d="M76.573 42.8123C73.9217 39.5179 70.0311 37.5882 66.015 36.5058C65.2933 36.3175 64.6501 37.2902 65.2463 37.8236C65.2619 37.8863 65.2933 37.9647 65.309 38.0275C65.4659 37.902 65.6228 37.7922 65.7796 37.6667C62.1871 38.4668 58.5004 38.4511 54.9236 37.5882C54.2176 37.4157 53.5273 38.3569 54.1549 38.906C55.0334 39.659 55.9119 40.4121 56.7904 41.1808C56.9003 40.7415 57.0258 40.3022 57.1356 39.863C49.7309 41.3377 40.7573 44.0046 33.7448 39.8944C33.3997 39.6904 32.8506 39.7845 32.678 40.1767C30.6229 44.6478 30.67 49.6837 30.3562 54.4999C30.0425 59.5043 29.9797 64.5245 30.921 69.4662C31.3916 71.9292 32.0505 74.3765 33.2114 76.6042C34.2939 78.675 35.6117 80.636 37.102 82.4401C40.1926 86.1895 44.2871 88.9349 49.0406 90.0959C53.4489 91.1783 58.5475 90.7391 62.8146 89.2173C64.9639 88.4486 66.7052 87.2093 68.525 85.8444C70.0468 84.6835 71.5685 83.5069 72.9177 82.1421C74.0472 80.9968 75.0199 79.7104 75.7886 78.2985C76.1808 77.5769 76.5102 76.8238 76.824 76.0708C77.1848 75.1609 77.6868 74.1255 77.7966 73.1685C77.9378 71.9606 77.9064 70.7055 78.0006 69.4819C78.1261 67.8503 78.2516 66.2345 78.3771 64.6029C78.6908 60.477 78.9732 56.3197 78.832 52.1624C78.7222 49.1973 78.6124 45.4165 76.7142 42.9535C76.1023 42.1691 74.7375 42.9378 75.365 43.7379C76.8867 45.7146 77.075 48.6326 77.2162 51.0171C77.4201 54.4057 77.2789 57.8257 77.0593 61.2143C76.8553 64.3676 76.5573 67.5209 76.3533 70.6741C76.322 71.2232 76.2906 71.7723 76.2592 72.3057C76.2278 73.0744 76.0082 73.7333 75.7572 74.4706C75.2238 75.961 74.5649 77.42 73.6864 78.7378C71.694 81.7185 68.5721 83.9305 65.7012 85.9856C62.2812 88.4172 57.7003 89.0918 53.5901 89.0604C48.868 89.0291 44.0361 87.0367 40.6005 83.8207C37.4001 80.84 34.592 76.8552 33.3369 72.6351C31.7368 67.3012 31.5642 61.732 31.8466 56.2099C31.9721 53.8723 32.1133 51.5348 32.2701 49.1973C32.4741 46.3735 32.8506 43.5183 34.0429 40.9298C33.6821 41.0239 33.3212 41.118 32.9761 41.2122C40.4279 45.5734 49.7152 42.9065 57.5905 41.3377C58.1553 41.2278 58.3592 40.3964 57.9357 40.0199C57.0571 39.2512 56.1786 38.4981 55.3001 37.7451C55.0491 38.1844 54.7981 38.6236 54.5314 39.0629C57.2768 39.7218 60.1163 39.9571 62.9401 39.6747C63.5519 39.612 64.1795 39.5335 64.7913 39.4237C65.3404 39.3296 66.1562 39.3296 66.5797 38.9374C67.2386 38.3256 67.0033 37.196 66.3915 36.6626C66.1405 37.1019 65.8895 37.5412 65.6228 37.9804C69.4036 38.9845 72.9961 40.7886 75.4905 43.8791C76.1023 44.6949 77.2005 43.581 76.573 42.8123Z" fill="#221F20"/>
<path d="M44.648 57.3081C44.648 57.7944 44.6009 58.1553 44.444 58.6259C44.4283 58.673 44.4126 58.72 44.3813 58.7828C44.4283 58.673 44.3813 58.7828 44.3656 58.8142C44.3185 58.9083 44.2714 58.9867 44.2244 59.0652C44.193 59.0965 44.1773 59.1436 44.1459 59.175C44.1616 59.1436 44.2401 59.0652 44.1459 59.175C44.1146 59.2064 44.0832 59.2377 44.0675 59.2691C44.0518 59.2848 43.9106 59.3789 44.0204 59.3162C44.1146 59.2534 43.942 59.3476 43.9106 59.3632C44.0204 59.2848 44.0204 59.3162 43.9577 59.3319C43.8322 59.3789 43.9891 59.3162 44.0204 59.3319C43.9891 59.3319 43.942 59.3319 43.9106 59.3319C43.942 59.3319 43.9891 59.3476 44.0204 59.3476C44.0047 59.3476 43.9891 59.3476 43.9734 59.3319L43.8792 59.3005C43.9577 59.3319 43.9891 59.3632 43.8949 59.3005C43.7537 59.1907 43.9577 59.3946 43.8322 59.2534C43.8008 59.2221 43.7694 59.1907 43.7537 59.1593C43.6753 59.0809 43.8165 59.2691 43.7537 59.1593C43.7067 59.0965 43.6596 59.0338 43.6282 58.9554C43.5969 58.9083 43.5812 58.8769 43.5655 58.8299C43.4557 58.6416 43.5969 58.9554 43.5184 58.7357C43.2047 57.8886 43.1733 57.01 43.4243 56.1629C43.4557 56.0531 43.487 55.959 43.5184 55.8648C43.5341 55.8491 43.5812 55.7236 43.5341 55.8491C43.5498 55.8021 43.5812 55.755 43.5969 55.7236C43.6282 55.6452 43.6753 55.5824 43.7224 55.5197C43.7381 55.504 43.8165 55.3942 43.7537 55.4726C43.691 55.5511 43.8008 55.4256 43.8165 55.4099C43.8479 55.3785 43.8792 55.3628 43.8949 55.3314C43.8008 55.4256 43.8165 55.3785 43.8636 55.3471C43.8949 55.3314 43.9263 55.3157 43.9577 55.3001C43.8636 55.3628 43.8949 55.2844 43.9106 55.3157C43.9106 55.3157 44.0204 55.2844 44.0047 55.2844C43.9891 55.2844 43.8165 55.3001 43.9577 55.3001C44.0204 55.3001 44.0832 55.3314 43.9106 55.2844C43.942 55.2844 44.0832 55.3314 43.9734 55.2844C43.8479 55.253 44.1773 55.4413 44.0047 55.2844C44.0675 55.3471 44.1303 55.4099 44.193 55.4726C44.2558 55.5354 44.1773 55.4569 44.1773 55.4413C44.2087 55.504 44.2558 55.5511 44.2871 55.6138C44.3185 55.6609 44.3342 55.6923 44.3499 55.7393C44.3499 55.755 44.4283 55.9276 44.4126 55.8491C44.3813 55.7707 44.444 55.9276 44.444 55.9433C44.4597 56.006 44.4911 56.0688 44.5068 56.1472C44.5381 56.2727 44.5695 56.3982 44.6009 56.5237C44.6323 56.7747 44.648 57.01 44.648 57.3081C44.648 57.7317 45.0088 58.0925 45.4324 58.0925C45.8559 58.0925 46.2168 57.7317 46.2168 57.3081C46.2011 56.1472 45.903 54.6098 44.8048 53.9509C43.7067 53.3077 42.5928 54.0921 42.1379 55.1275C41.6045 56.3198 41.5417 57.7788 41.9496 59.0181C42.2948 60.0535 43.189 61.2301 44.4283 60.8379C45.8246 60.3986 46.2168 58.5788 46.2168 57.3081C46.2168 56.8845 45.8559 56.5237 45.4324 56.5237C45.0088 56.5237 44.648 56.8845 44.648 57.3081Z" fill="#221F20"/>
<path d="M66.768 57.3083C66.768 57.7947 66.7209 58.1555 66.564 58.6261C66.5484 58.6732 66.5327 58.7202 66.5013 58.783C66.517 58.7516 66.564 58.6732 66.4856 58.8144C66.4385 58.8928 66.3915 58.9869 66.3444 59.0654C66.3287 59.0968 66.313 59.1281 66.2817 59.1438C66.2189 59.2379 66.3601 59.0654 66.2817 59.1438C66.2189 59.2066 66.1562 59.2693 66.0934 59.3321C66.2346 59.2066 66.062 59.3321 66.015 59.3635C66.0307 59.3478 66.1875 59.3007 66.0463 59.3321C65.9993 59.3478 65.9051 59.3478 66.1091 59.3321C66.0777 59.3321 66.062 59.3321 66.0306 59.3321C65.9208 59.3164 66.1875 59.3635 66.0777 59.3478C66.0463 59.3478 65.9365 59.3164 66.0463 59.3478C66.1718 59.3791 66.015 59.3164 65.9993 59.3164C65.9679 59.3164 65.8581 59.2066 66.015 59.3478C65.9836 59.3164 65.9522 59.3007 65.9208 59.2693C65.8895 59.2379 65.764 59.0968 65.811 59.1595C65.8738 59.2379 65.7796 59.1281 65.7796 59.0968C65.7483 59.0497 65.7326 59.0183 65.7012 58.9713C65.6855 58.9399 65.56 58.6889 65.6071 58.783C65.2619 57.9358 65.2463 57.0103 65.4973 56.1631C65.5757 55.9121 65.5757 55.9121 65.6698 55.7238C65.7169 55.6454 65.764 55.567 65.811 55.4885C65.8581 55.4101 65.7953 55.5042 65.7953 55.5199C65.8424 55.4728 65.8738 55.4258 65.9208 55.3787C65.9522 55.3473 65.9836 55.3316 66.015 55.3003C65.9993 55.316 65.9051 55.3473 65.9679 55.3473C65.9993 55.3473 66.0463 55.316 66.062 55.3003C66.1405 55.2375 65.9365 55.363 66.015 55.316C66.0463 55.3003 66.1562 55.2846 66.0306 55.3003C65.9208 55.316 65.9993 55.3003 66.0306 55.3003C66.1718 55.3003 65.9993 55.3003 65.9836 55.2846C65.9993 55.3003 66.1875 55.3944 65.9993 55.2689C66.062 55.3003 66.2032 55.3944 66.0777 55.3003C66.1562 55.363 66.2346 55.4415 66.2973 55.5199C66.2032 55.4101 66.3444 55.5983 66.3758 55.6454C66.4072 55.6925 66.4228 55.7238 66.4385 55.7709C66.4385 55.7709 66.517 55.9435 66.5013 55.8807C66.4699 55.8023 66.5327 55.9592 66.5327 55.9748C66.5484 56.0376 66.5797 56.1004 66.5954 56.1788C66.6268 56.3043 66.6582 56.4298 66.6895 56.5553C66.7523 56.7749 66.768 57.0103 66.768 57.3083C66.768 57.7319 67.1288 58.0927 67.5524 58.0927C67.976 58.0927 68.3368 57.7319 68.3368 57.3083C68.3211 56.1317 68.0073 54.6257 66.9249 53.9668C65.8424 53.3079 64.7129 54.0766 64.2422 55.0963C63.6931 56.2886 63.6147 57.7947 64.054 59.034C64.4148 60.0694 65.2933 61.1989 66.5327 60.8224C67.9289 60.4145 68.3368 58.5477 68.3368 57.2926C68.3368 56.8691 67.976 56.5082 67.5524 56.5082C67.1288 56.5239 66.768 56.8847 66.768 57.3083Z" fill="#221F20"/>
<path d="M45.4324 57.3081C45.4324 58.8613 44.7735 60.1163 43.9577 60.1163C43.1262 60.1163 42.4673 58.8613 42.4673 57.3081C42.4673 55.755 43.1262 54.5 43.9577 54.5C44.7735 54.5 45.4324 55.755 45.4324 57.3081Z" fill="#221F20"/>
<path d="M67.5524 57.3081C67.5524 58.8613 66.8778 60.1163 66.062 60.1163C65.2463 60.1163 64.5717 58.8613 64.5717 57.3081C64.5717 55.755 65.2463 54.5 66.062 54.5C66.8778 54.5 67.5524 55.755 67.5524 57.3081Z" fill="#221F20"/>
<path d="M52.9783 60.1163C53.041 63.0186 53.0881 65.9209 53.1351 68.8075C53.1665 70.1096 53.4646 71.2705 54.7824 71.8039C56.1002 72.3372 57.418 71.8352 58.6416 71.3175C59.0338 71.145 59.1123 70.5802 58.924 70.2507C58.6887 69.8429 58.2494 69.8115 57.8572 69.9684C57.0571 70.3135 55.8648 70.8469 55.0648 70.2037C54.6883 69.9056 54.7039 69.435 54.6883 68.9957C54.6726 68.3996 54.6726 67.8191 54.6569 67.223C54.6098 64.8541 54.5784 62.4852 54.5314 60.1006C54.5157 59.1123 52.9626 59.1123 52.9783 60.1163Z" fill="#221F20"/>
<path d="M49.6524 76.0241C49.9662 77.0438 51.2055 77.7497 52.1154 78.1576C53.7784 78.9106 55.5668 79.0832 57.3709 78.9106C59.4417 78.7067 61.5282 77.985 62.3754 75.9456C62.5322 75.5534 62.2028 75.0985 61.8263 74.9886C61.387 74.8631 61.0262 75.1455 60.8693 75.5377C60.9634 75.3181 60.8066 75.6632 60.7752 75.7103C60.7124 75.8201 60.634 75.9456 60.5556 76.0397C60.6497 75.9142 60.3987 76.2123 60.3516 76.2437C60.2418 76.3535 60.1477 76.4319 60.0692 76.479C59.2848 77.0281 58.3122 77.2477 57.3709 77.3418C55.8962 77.483 54.3745 77.436 52.994 76.8555C52.5233 76.6516 52.037 76.4006 51.6291 76.0711C51.5036 75.9613 51.3781 75.8515 51.2683 75.726C51.2369 75.6946 51.1898 75.6475 51.1585 75.6005C51.2055 75.6475 51.2055 75.6632 51.1742 75.6162C51.0486 75.475 51.1742 75.6789 51.1428 75.5848C50.8604 74.6435 49.3543 75.0514 49.6524 76.0241Z" fill="#221F20"/>
<path d="M39.6749 50.0134C42.5771 49.9506 45.4637 49.8722 48.366 49.8094C49.37 49.7781 49.37 48.225 48.366 48.2563C45.4637 48.3191 42.5771 48.3975 39.6749 48.4603C38.6865 48.476 38.6708 50.0291 39.6749 50.0134Z" fill="#221F20"/>
<path d="M57.7474 47.9896C58.5946 45.9031 61.1046 44.7735 63.2225 44.5696C65.513 44.3656 67.8191 45.3069 68.776 47.4876C69.1839 48.3975 70.5174 47.6131 70.1252 46.7032C67.6465 41.0398 58.4063 42.2791 56.2571 47.566C55.8649 48.4916 57.3709 48.8995 57.7474 47.9896Z" fill="#221F20"/>
<path d="M77.0122 73.1687C77.0907 66.9092 79.9145 48.2562 76.0239 43.3616C73.5295 40.1926 69.7173 38.2787 65.811 37.259C66.1875 37.4943 66.2817 38.0904 65.9993 38.4199C62.2969 39.2827 58.3906 39.2514 54.7196 38.3415C55.5982 39.0945 56.4767 39.8475 57.3552 40.6162C49.574 42.1536 40.1455 44.648 33.3526 40.5691C31.7838 43.8793 31.5485 47.6444 31.3446 51.2997C31.0151 57.2768 29.9797 65.9209 33.1644 74.7062C25.7283 69.9527 27.4226 58.5946 26.8107 53.1352C26.4499 50.029 27.0774 37.7767 29.7601 34.6077C26.7009 34.843 27.4069 34.0586 24.6929 32.0349C27.5167 30.8583 30.6229 30.3563 33.6664 30.5759C30.9837 29.7444 29.1482 26.8108 29.5561 24.034C32.2388 25.4459 34.592 27.5011 36.3647 29.9641C37.557 27.4069 40.6161 23.7516 43.3302 22.9986C63.803 17.2568 76.5102 26.5598 79.8674 31.5799C83.6482 37.2433 86.5348 41.1339 86.629 46.4678C86.8956 62.0773 79.6635 68.5094 77.0122 73.1687Z" fill="#221F20"/>
<path d="M77.7966 73.1687C77.8751 67.9446 78.6124 62.7362 78.8007 57.5121C78.8948 54.6412 78.9262 51.7546 78.581 48.8994C78.33 46.8757 77.9692 44.648 76.6985 42.9694C74.1256 39.5651 70.0468 37.5884 66.015 36.5059C65.2933 36.3177 64.6501 37.2903 65.2463 37.8237C65.2619 37.8865 65.2933 37.9649 65.309 38.0276C65.4659 37.9021 65.6228 37.7923 65.7796 37.6668C62.1871 38.4669 58.5004 38.4512 54.9236 37.5884C54.2176 37.4158 53.5273 38.3571 54.1549 38.9062C55.0334 39.6592 55.9119 40.4122 56.7904 41.1809C56.9003 40.7417 57.0258 40.3024 57.1356 39.8631C49.7309 41.3378 40.7573 44.0048 33.7448 39.8945C33.3997 39.6906 32.8506 39.7847 32.678 40.1769C31.4073 42.938 30.9367 45.8873 30.717 48.8994C30.5131 51.4879 30.3719 54.1078 30.2464 56.6963C29.9483 62.8617 30.3405 69.0584 32.4113 74.9257C32.7879 74.6277 33.1801 74.3296 33.5566 74.0472C28.2854 70.5802 27.9089 63.6461 27.7991 57.9357C27.752 55.7707 27.5481 53.6058 27.5167 51.4252C27.4696 48.7112 27.6736 45.9971 28.0187 43.2988C28.2227 41.6829 28.505 40.0828 28.9129 38.514C29.211 37.3844 29.5718 36.098 30.3248 35.1724C30.717 34.7018 30.5131 33.7762 29.7758 33.839C28.9443 33.9017 28.1128 33.9958 27.4383 33.4311C26.6382 32.7565 25.9322 32.0035 25.1007 31.3603C25.038 31.8309 24.9752 32.3172 24.9125 32.7879C27.7206 31.6583 30.6543 31.172 33.6821 31.3603C34.6077 31.423 34.6861 30.0895 33.886 29.8228C31.4701 29.0071 30.0581 26.5284 30.3562 24.034C29.964 24.2536 29.5718 24.4889 29.1796 24.7086C31.7524 26.0891 33.9801 28.003 35.7058 30.3562C36.0196 30.7798 36.7726 30.9367 37.055 30.3562C37.8237 28.7561 38.9062 27.2971 40.1455 26.042C41.5261 24.6615 42.9066 23.9085 44.7735 23.4222C48.7111 22.4181 52.7743 21.8847 56.8532 21.9789C62.7205 22.1357 68.6035 23.6575 73.5766 26.8421C75.2552 27.9089 76.824 29.1639 78.1575 30.6543C78.832 31.4073 79.3811 32.2388 79.9459 33.0859C81.1068 34.8116 82.2834 36.5373 83.3188 38.3571C84.2444 39.9886 85.0445 41.6986 85.4837 43.5341C85.9387 45.4481 85.9073 47.4404 85.8132 49.4014C85.6563 52.9469 85.0445 56.461 83.8522 59.8025C82.8795 62.5636 81.4833 65.1365 79.8674 67.5681C78.7065 69.3095 77.3887 70.9724 76.3377 72.7922C75.8356 73.6707 77.1848 74.4551 77.6868 73.5766C78.6752 71.8509 79.9145 70.2978 81.0284 68.6506C82.5344 66.4072 83.8522 64.054 84.8562 61.5439C86.1583 58.3279 86.8956 54.9236 87.2251 51.4722C87.6173 47.3934 87.4918 43.4714 85.7661 39.7063C84.8876 37.7923 83.7424 36.0039 82.5815 34.2468C81.6872 32.8977 80.8401 31.5015 79.8204 30.2307C78.5967 28.6933 77.075 27.4069 75.4905 26.2774C70.5645 22.7633 64.5403 20.9435 58.5475 20.5199C53.9666 20.2061 49.3387 20.7238 44.8833 21.8063C42.7497 22.324 41.0711 23.0456 39.4552 24.5517C37.9335 25.9793 36.6 27.7207 35.6901 29.6032C36.1451 29.6032 36.6 29.6032 37.0393 29.6032C35.1567 27.0304 32.7722 24.9125 29.9483 23.3908C29.3836 23.0927 28.8345 23.4849 28.7717 24.0654C28.3795 27.2657 30.4347 30.3405 33.4624 31.3603C33.5252 30.8426 33.6036 30.3405 33.6664 29.8228C30.5288 29.6189 27.4069 30.1209 24.4889 31.3132C23.83 31.5799 23.7359 32.3172 24.3007 32.7408C25.1792 33.4154 25.8851 34.3567 26.8264 34.9528C27.705 35.5176 28.7717 35.4862 29.7758 35.4234C29.5875 34.9842 29.3992 34.5292 29.2267 34.09C27.5951 36.0823 27.1245 38.9846 26.7166 41.4633C26.2303 44.4754 25.9793 47.5346 25.9479 50.5937C25.9322 52.8371 26.1832 55.0805 26.2303 57.3238C26.293 60.4144 26.3872 63.5363 27.0774 66.5641C27.8932 70.1409 29.6659 73.3883 32.7879 75.4278C33.3369 75.7886 34.1684 75.1768 33.9331 74.5492C31.925 68.9016 31.5328 62.9872 31.7995 57.0415C31.9093 54.6255 32.0662 52.2096 32.2231 49.7936C32.4113 46.7972 32.7722 43.7694 34.0272 41.0084C33.6664 41.1025 33.3056 41.1966 32.9604 41.2907C40.4122 45.652 49.6995 42.985 57.5748 41.4163C58.1396 41.3064 58.3435 40.475 57.92 40.0985C57.0414 39.3298 56.1629 38.5767 55.2844 37.8237C55.0334 38.263 54.7824 38.7022 54.5157 39.1415C57.2611 39.8004 60.1006 40.0357 62.9244 39.7533C63.5363 39.6906 64.1638 39.6121 64.7756 39.5023C65.3247 39.4082 66.1405 39.4082 66.564 39.016C67.2229 38.4042 66.9876 37.2746 66.3758 36.7412C66.1248 37.1805 65.8738 37.6198 65.6071 38.059C69.1683 39.016 72.6353 40.6475 75.0826 43.4871C76.4318 45.0402 76.8083 47.158 77.0436 49.1504C77.6711 54.6569 77.1534 60.3046 76.7299 65.8267C76.5416 68.2897 76.2749 70.7528 76.2435 73.2314C76.2121 74.1727 77.7809 74.1727 77.7966 73.1687Z" fill="#221F20"/>
<path d="M39.1101 71.9605C40.9642 71.9605 42.4673 70.4575 42.4673 68.6033C42.4673 66.7492 40.9642 65.2461 39.1101 65.2461C37.2559 65.2461 35.7529 66.7492 35.7529 68.6033C35.7529 70.4575 37.2559 71.9605 39.1101 71.9605Z" fill="#F7CB46"/>
<path d="M70.8782 71.9605C72.7324 71.9605 74.2355 70.4575 74.2355 68.6033C74.2355 66.7492 72.7324 65.2461 70.8782 65.2461C69.0241 65.2461 67.521 66.7492 67.521 68.6033C67.521 70.4575 69.0241 71.9605 70.8782 71.9605Z" fill="#F7CB46"/>
</svg>
