<svg width="109" height="109" viewBox="0 0 109 109" fill="none" xmlns="http://www.w3.org/2000/svg">
<path d="M54.5 109C84.5995 109 109 84.5995 109 54.5C109 24.4005 84.5995 0 54.5 0C24.4005 0 0 24.4005 0 54.5C0 84.5995 24.4005 109 54.5 109Z" fill="white"/>
<path d="M29.3208 69.4822C32.7407 76.9968 39.063 83.4916 47.5031 84.7937C51.7702 85.4526 56.0687 84.4956 60.0849 83.0523C63.4891 81.8287 66.8464 80.2599 69.3721 77.6243C72.0077 74.8789 73.4667 71.3334 74.5962 67.7566C74.8943 66.7996 73.3883 66.3917 73.0902 67.3487C72.1489 70.3137 71.0037 73.3258 68.9799 75.7417C66.8778 78.2518 64.0696 79.8206 61.0732 81.0286C57.2924 82.5503 53.1508 83.7583 49.0405 83.4445C45.1185 83.1465 41.071 81.4365 38.0903 78.8793C34.9057 76.1496 32.4113 72.5257 30.6699 68.7292C30.2463 67.7879 28.9129 68.5723 29.3208 69.4822Z" fill="#221F20"/>
<path d="M62.3597 15.9859C54.5314 13.319 45.8088 13.6798 38.5139 17.6646C31.1249 21.6964 25.1321 28.1127 20.3943 34.9841C15.6095 41.9338 12.1111 49.9504 11.4208 58.4376C10.7619 66.4855 12.6602 74.9727 17.6803 81.4205C22.9044 88.1192 31.4387 92.4177 40.02 91.4764C40.8044 91.398 41.0554 90.5038 40.4122 90.0331C30.6543 82.8951 29.6973 69.6074 31.6426 58.6572C32.1133 56.0373 32.678 53.4331 33.3055 50.8603C33.7919 48.8365 34.3723 46.8285 35.2508 44.9459C37.306 40.5533 40.7103 36.6784 44.4754 33.6663C49.2131 29.8541 55.2059 27.1087 61.387 27.7676C62.3753 27.8774 62.3753 26.3086 61.387 26.2145C55.7393 25.6184 50.1858 27.7519 45.5892 30.9052C41.2123 33.9173 37.2589 37.9962 34.6704 42.6712C32.3015 46.9383 31.4073 51.8643 30.4503 56.6021C29.1639 63.0342 28.5835 69.7643 30.0738 76.2121C31.4387 82.1892 34.6233 87.7427 39.6121 91.398C39.7376 90.9117 39.8788 90.4253 40.0043 89.9547C32.7251 90.7548 25.5243 87.6329 20.5198 82.3931C15.0761 76.6827 12.7072 68.6661 12.8327 60.9006C12.9739 52.7899 15.8919 45.0087 20.1433 38.2001C24.3634 31.4386 29.9013 25.0536 36.6157 20.6453C40.3181 18.2136 44.3185 16.5036 48.7425 16.033C53.1822 15.5624 57.7003 16.0958 61.9204 17.5234C62.8931 17.8058 63.3009 16.2997 62.3597 15.9859Z" fill="#221F20"/>
<path d="M62.3597 17.4764C68.7604 14.8722 76.0553 17.1155 80.9656 21.6651C85.9387 26.2773 88.7468 32.7721 90.3941 39.2513C93.9709 53.4175 91.6178 68.4623 86.2682 81.8755C84.8092 85.5465 83.1933 89.3586 80.997 92.6531C78.9262 95.775 75.2866 98.5675 71.3646 97.1399C71.5215 97.5164 71.6783 97.9086 71.8352 98.2851C73.608 95.1161 74.5806 91.6177 74.6747 87.9938C74.6904 87.2878 73.8276 87.0054 73.3413 87.4447C71.4116 89.2174 69.1683 90.5195 66.6739 91.2883C66.9876 91.602 67.3171 91.9315 67.6308 92.2452C71.7097 82.1579 74.4551 71.5685 75.7572 60.7752C76.4004 55.4726 76.8083 50.0917 76.2592 44.7734C75.82 40.4906 74.9885 35.6901 72.1333 32.3015C69.4663 29.1168 65.3247 27.7206 61.591 26.2146C60.6654 25.8381 60.2575 27.3441 61.1831 27.7206C64.3834 29.007 67.9289 30.215 70.4076 32.7251C73.4354 35.7999 74.2669 40.6475 74.6904 44.7734C75.2081 49.8563 74.863 54.9863 74.2669 60.0535C73.6707 65.2305 72.7294 70.3605 71.4587 75.412C70.0625 81.0126 68.2584 86.5034 66.0934 91.853C65.8738 92.4021 66.5327 92.9669 67.0504 92.81C69.7958 91.9471 72.2902 90.5039 74.408 88.5585C73.9688 88.3703 73.5295 88.1977 73.0746 88.0095C72.9804 91.3667 72.0862 94.5984 70.439 97.5164C70.1723 97.987 70.439 98.489 70.9096 98.6616C74.2041 99.8539 77.7653 98.442 80.1655 96.1045C82.7697 93.5473 84.3385 90.0175 85.8446 86.7387C89.092 79.6321 91.5236 72.1332 92.7316 64.3991C93.9239 56.8061 93.9709 49.0406 92.4492 41.4946C91.0216 34.4351 88.3076 27.2657 83.3502 21.9161C78.032 16.19 69.4663 12.9269 61.9047 16.0017C61.0262 16.3468 61.4341 17.8529 62.3597 17.4764Z" fill="#221F20"/>
<path d="M40.7731 54.5001C41.5962 54.5001 42.2634 53.2428 42.2634 51.6919C42.2634 50.141 41.5962 48.8838 40.7731 48.8838C39.95 48.8838 39.2827 50.141 39.2827 51.6919C39.2827 53.2428 39.95 54.5001 40.7731 54.5001Z" fill="#221F20"/>
<path d="M62.8931 54.5001C63.7162 54.5001 64.3834 53.2428 64.3834 51.6919C64.3834 50.141 63.7162 48.8838 62.8931 48.8838C62.07 48.8838 61.4027 50.141 61.4027 51.6919C61.4027 53.2428 62.07 54.5001 62.8931 54.5001Z" fill="#221F20"/>
<path d="M48.366 50.6095C48.4287 53.5118 48.3973 56.414 48.5385 59.3163C48.6013 60.5557 49.1661 61.5126 50.374 61.9205C51.6291 62.3441 52.8841 61.8421 54.045 61.3557C54.4372 61.1832 54.5156 60.6184 54.3274 60.289C54.0921 59.8811 53.6528 59.8497 53.2606 60.0066C52.4762 60.336 51.4879 60.7753 50.6564 60.3517C50.2642 60.1478 50.1544 59.8183 50.123 59.3947C50.076 58.8143 50.0916 58.2338 50.0916 57.6534C50.0446 55.3002 49.9975 52.947 49.9504 50.5938C49.9034 49.6055 48.3503 49.6055 48.366 50.6095Z" fill="#221F20"/>
<path d="M44.7577 66.2035C44.9617 67.286 45.8402 68.2744 46.6089 69.0117C47.7855 70.1412 49.2602 71.0197 50.8603 71.3492C53.7155 71.9453 57.3708 71.3335 59.3161 68.996C60.0378 68.1332 60.5084 67.1291 60.7908 66.0467C61.0575 65.074 59.5515 64.6661 59.2848 65.6388C58.6102 68.1645 56.6806 69.6235 54.092 69.9059C52.0997 70.1255 50.2328 69.8275 48.5856 68.6509C47.6914 68.0077 46.4677 66.9409 46.2481 65.7956C46.0598 64.8073 44.5538 65.2152 44.7577 66.2035Z" fill="#221F20"/>
<path d="M68.1015 63.6461C69.9556 63.6461 71.4587 62.143 71.4587 60.2889C71.4587 58.4347 69.9556 56.9316 68.1015 56.9316C66.2473 56.9316 64.7443 58.4347 64.7443 60.2889C64.7443 62.143 66.2473 63.6461 68.1015 63.6461Z" fill="#F7CB46"/>
<path d="M37.7295 64.6656C39.5837 64.6656 41.0868 63.1625 41.0868 61.3084C41.0868 59.4543 39.5837 57.9512 37.7295 57.9512C35.8754 57.9512 34.3723 59.4543 34.3723 61.3084C34.3723 63.1625 35.8754 64.6656 37.7295 64.6656Z" fill="#F7CB46"/>
<path d="M37.7139 45.8243C37.6982 44.7732 39.0474 44.3183 39.9416 44.1144C40.4593 43.9888 41.0084 43.9418 41.5418 44.0987C41.683 44.1457 41.9183 44.2712 42.0124 44.3497C42.1065 44.4281 42.185 44.5066 42.2634 44.6007C42.232 44.5693 42.3889 44.836 42.3732 44.7889C42.5301 45.1811 42.8909 45.4478 43.3302 45.338C43.7067 45.2282 44.0205 44.7732 43.8793 44.381C43.5655 43.5653 42.9851 43.0005 42.185 42.6867C41.3849 42.373 40.4907 42.4044 39.6592 42.5926C38.0434 42.9534 36.1608 43.9261 36.1765 45.8243C36.1765 46.8284 37.7296 46.8284 37.7139 45.8243Z" fill="#221F20"/>
<path d="M59.2378 45.3852C59.0809 43.9419 60.4771 43.1889 61.6851 42.9065C62.2969 42.7653 63.097 42.5614 63.6932 42.8281C64.2579 43.0791 64.6344 43.6282 64.9325 44.1459C65.4345 45.0087 66.768 44.24 66.2817 43.3615C65.8424 42.5771 65.2306 41.8241 64.3991 41.4476C63.4108 40.9926 62.2969 41.1652 61.2772 41.4162C59.4417 41.8554 57.4493 43.2674 57.6847 45.4009C57.7317 45.8245 58.0141 46.1853 58.4691 46.1853C58.8456 46.1539 59.2848 45.8088 59.2378 45.3852Z" fill="#221F20"/>
</svg>
